<?xml version="1.0" encoding="UTF-8"?>
<svg viewBox="0 0 1217 673" version="1.1" xmlns="http://www.w3.org/2000/svg" xmlns:xlink="http://www.w3.org/1999/xlink">
    <!-- Generator: Sketch 41 (35326) - http://www.bohemiancoding.com/sketch -->
    <title>Group</title>
    <desc>Created with Sketch.</desc>
    <defs>
        <linearGradient x1="0%" y1="0%" x2="101.999998%" y2="100.999999%" id="linearGradient-1">
            <stop stop-color="#3023AE" offset="0%"></stop>
            <stop stop-color="#C96DD8" offset="100%"></stop>
        </linearGradient>
    </defs>
    <g id="Page-1" stroke="none" stroke-width="1" fill="none" fill-rule="evenodd">
        <g id="Group" fill="url(#linearGradient-1)">
            <path d="M1216.46388,435.043083 L1216.46388,510.994466 C1216.46388,527.633992 1202.25661,541.052964 1185.63678,539.442688 C1174.91432,538.36917 1164.45991,536.758893 1154.80969,534.880237 C1081.36079,519.850988 1032.84163,479.862451 994.776872,428.870356 C989.147577,421.89249 983.518282,415.451383 977.620925,409.547036 L977.352863,409.278656 C955.371806,383.782609 920.255727,370.900395 883.531278,370.900395 L880.582599,370.900395 L877.633921,370.900395 C840.909471,370.900395 805.793392,384.050988 784.080396,409.278656 L783.812335,409.547036 C777.914978,415.451383 772.017621,421.89249 766.656388,428.870356 C747.624009,454.366403 725.911013,477.178656 699.640969,495.428458 C673.638987,513.678261 643.079956,527.365613 606.355507,534.880237 C586.250881,538.905929 564.537885,541.052964 540.412335,541.052964 C412.814978,541.052964 306.662555,457.050198 279.320264,334.937549 C274.763216,314.809091 272.350661,294.143874 272.350661,272.136759 L272.350661,270.526482 C272.350661,251.471542 274.227093,232.95336 277.711894,215.240316 C283.609251,185.181818 294.331718,157.001976 309.343172,131.774308 C353.305286,55.8229249 434.527974,4.56245059 532.906608,0.536758893 C537.195595,0.268379447 541.484581,0.268379447 545.773568,0.268379447 C638.254846,0.268379447 702.053524,34.0841897 747.355947,85.0762846 C758.346476,97.4217391 756.470044,116.47668 743.335022,126.406719 L678.732159,176.325296 C667.205507,185.181818 651.121806,183.839921 640.935463,173.641502 C614.93348,147.608696 584.910573,131.774308 544.165198,131.774308 C489.748678,131.774308 447.394934,166.395257 429.434802,215.240316 C423.537445,231.879842 420.052643,250.129644 420.052643,269.184585 L420.052643,270.794862 C420.052643,294.143874 424.609692,315.882609 432.919604,334.937549 C452.488106,379.756917 492.965419,409.547036 543.897137,409.547036 C588.663436,409.547036 618.418282,392.102372 644.956388,364.727668 C650.585683,359.0917 655.678855,352.918972 661.040088,346.477866 C682.485022,316.956126 709.291189,291.728458 741.726652,273.210277 C742.798899,272.673518 743.871145,271.868379 744.943392,271.6 C770.141189,258.181028 798.287665,248.519368 828.042511,243.420158 C830.455066,243.151779 832.599559,242.61502 835.012115,242.34664 C835.8163,242.078261 836.352423,242.078261 837.156608,242.078261 C842.24978,241.273123 847.07489,240.736364 852.436123,240.467984 C861.282159,239.662846 870.396256,239.394466 879.778414,239.394466 C889.160573,239.394466 898.27467,239.931225 907.120705,240.467984 C910.337445,240.736364 913.286123,241.004743 916.234802,241.273123 C918.111233,241.541502 919.719604,241.809881 921.596035,242.078261 C922.40022,242.078261 923.472467,242.34664 924.276652,242.34664 C956.980176,246.909091 987.271145,257.10751 1014.34537,271.6 C1015.68568,272.136759 1016.75793,272.941897 1017.83018,273.478656 C1049.99758,291.996838 1075.99956,316.956126 1097.17643,346.209486 C1097.71256,346.746245 1097.98062,347.283004 1098.51674,347.819763 C1103.34185,353.724111 1108.70308,358.82332 1113.79626,363.92253 C1135.50925,386.734783 1159.36674,402.837549 1191.8022,407.936759 C1206.27753,409.815415 1216.46388,421.355731 1216.46388,435.043083 Z M253.854405,272.136759 L253.854405,270.526482 C253.854405,251.739921 255.730837,233.221739 258.947577,215.240316 L172.363656,215.240316 C156.816079,215.240316 143.949119,202.626482 143.949119,186.792095 L143.949119,159.95415 C143.949119,144.388142 156.548018,131.505929 172.363656,131.505929 L287.898238,131.505929 C289.506608,128.285375 291.38304,125.333202 292.99141,122.112648 C326.231057,65.2162055 378.235022,22.812253 439.621145,0.268379447 L28.4145374,0.268379447 C12.5988987,0.536758893 0,13.1505929 0,28.9849802 L0,502.406324 C0,517.972332 12.5988987,530.854545 28.4145374,530.854545 L115.534581,530.854545 C131.082159,530.854545 143.949119,518.240711 143.949119,502.406324 L143.949119,363.385771 C143.949119,347.819763 156.548018,334.937549 172.363656,334.937549 L260.287885,334.937549 C255.998899,314.540711 253.854405,293.607115 253.854405,272.136759 Z" id="Combined-Shape"></path>
            <path d="M2,608.218647 C2,604.743002 4.67357285,602.069429 8.14921754,602.069429 L47.9854529,602.069429 C50.9263831,602.069429 53.5999559,604.475645 53.5999559,607.683932 C53.5999559,610.624862 51.1937404,613.298435 47.9854529,613.298435 L14.0310778,613.298435 L14.0310778,632.013445 L43.7077364,632.013445 C46.6486665,632.013445 49.3222394,634.419661 49.3222394,637.627948 C49.3222394,640.568878 46.9160238,643.242451 43.7077364,643.242451 L14.0310778,643.242451 L14.0310778,665.700463 C14.0310778,668.90875 11.357505,671.582323 8.14921754,671.582323 C4.67357285,671.582323 2,668.90875 2,665.700463 C2,665.700463 2,608.218647 2,608.218647 Z M71.512894,608.218647 C71.512894,604.743002 74.1864668,602.069429 77.6621115,602.069429 L102.258982,602.069429 C110.814415,602.069429 117.498347,604.743002 122.043421,609.020719 C125.786423,612.763721 127.657924,617.843509 127.657924,623.725369 L127.657924,623.992726 C127.657924,634.954375 121.241349,641.638307 112.151201,644.579237 L125.251708,661.155389 C126.321137,662.492175 127.123209,663.828962 127.123209,665.700463 C127.123209,668.90875 124.182279,671.314966 121.241349,671.314966 C118.567776,671.314966 116.696275,669.978179 115.359489,668.106678 L98.783337,646.985453 L83.5439718,646.985453 L83.5439718,665.433106 C83.5439718,668.641393 80.8703989,671.314966 77.6621115,671.314966 C74.1864668,671.314966 71.512894,668.641393 71.512894,665.433106 C71.512894,665.433106 71.512894,608.218647 71.512894,608.218647 Z M101.189553,636.023804 C109.744986,636.023804 115.359489,631.47873 115.359489,624.527441 L115.359489,624.260084 C115.359489,617.041437 110.012343,613.031078 101.189553,613.031078 L83.5439718,613.031078 L83.5439718,636.023804 L101.189553,636.023804 Z M147.70972,664.631034 L147.70972,608.218647 C147.70972,604.743002 150.383293,602.069429 153.858938,602.069429 L193.695173,602.069429 C196.636103,602.069429 199.042319,604.475645 199.042319,607.416575 C199.042319,610.357505 196.636103,612.763721 193.695173,612.763721 L159.740798,612.763721 L159.740798,630.676659 L189.150099,630.676659 C192.091029,630.676659 194.497245,633.082874 194.497245,636.291162 C194.497245,639.232092 192.091029,641.638307 189.150099,641.638307 L159.740798,641.638307 L159.740798,660.08596 L194.229888,660.08596 C197.170818,660.08596 199.577033,662.492175 199.577033,665.433106 C199.577033,668.374036 197.170818,670.780251 194.229888,670.780251 L153.59158,670.780251 C150.383293,670.512894 147.70972,668.106678 147.70972,664.631034 Z M215.61847,636.558519 C215.61847,617.041437 230.590478,601 251.444346,601 C272.298215,601 287.270223,617.041437 287.270223,636.291162 L287.270223,636.558519 C287.270223,644.31188 284.59665,651.530527 280.318933,657.679744 L284.59665,661.422746 C285.933436,662.492175 286.735508,664.096319 286.735508,666.235177 C286.735508,669.443465 284.061935,672.117038 281.121005,672.117038 C279.249504,672.117038 277.912718,671.314966 276.843289,670.245537 L272.030857,665.96782 C266.148997,669.978179 259.197708,672.384395 251.176989,672.384395 C230.323121,671.84968 215.61847,655.808243 215.61847,636.558519 Z M252.513776,645.648667 C252.513776,642.440379 255.187348,639.766806 258.128279,639.766806 C259.99978,639.766806 261.069209,640.301521 262.405995,641.638307 L271.228786,649.659026 C273.367644,645.916024 274.437073,641.638307 274.437073,636.558519 L274.437073,636.291162 C274.437073,622.923297 264.812211,611.961649 251.176989,611.961649 C237.541768,611.961649 228.184263,622.923297 228.184263,636.023804 L228.184263,636.291162 C228.184263,649.659026 237.809125,660.620674 251.444346,660.620674 C255.98942,660.620674 259.99978,659.551245 263.208067,657.412387 L254.652634,650.19374 C253.583205,649.124311 252.513776,647.520168 252.513776,645.648667 Z M305.985233,641.638307 L305.985233,607.683932 C305.985233,604.475645 308.658805,601.802072 312.13445,601.802072 C315.342737,601.802072 318.01631,604.475645 318.01631,607.683932 L318.01631,641.103593 C318.01631,653.936742 324.700242,660.620674 335.394534,660.620674 C346.088825,660.620674 352.5054,654.2041 352.5054,641.638307 L352.5054,607.683932 C352.5054,604.475645 355.178973,601.802072 358.654618,601.802072 C361.862905,601.802072 364.536478,604.475645 364.536478,607.683932 L364.536478,641.103593 C364.536478,661.690104 353.040115,671.84968 335.127177,671.84968 C317.481596,671.84968 305.985233,661.422746 305.985233,641.638307 Z M386.727132,664.631034 L386.727132,608.218647 C386.727132,604.743002 389.400705,602.069429 392.87635,602.069429 L432.712585,602.069429 C435.653516,602.069429 438.059731,604.475645 438.059731,607.416575 C438.059731,610.357505 435.653516,612.763721 432.712585,612.763721 L398.75821,612.763721 L398.75821,630.676659 L428.167512,630.676659 C431.108442,630.676659 433.514657,633.082874 433.514657,636.291162 C433.514657,639.232092 431.108442,641.638307 428.167512,641.638307 L398.75821,641.638307 L398.75821,660.08596 L433.2473,660.08596 C436.18823,660.08596 438.594446,662.492175 438.594446,665.433106 C438.594446,668.374036 436.18823,670.780251 433.2473,670.780251 L392.87635,670.780251 C389.400705,670.512894 386.727132,668.106678 386.727132,664.631034 Z M457.576813,607.683932 C457.576813,604.475645 460.250386,601.534715 463.72603,601.534715 L465.062817,601.534715 C468.003747,601.534715 469.607891,602.871501 471.212034,605.010359 L505.433767,649.391669 L505.433767,607.416575 C505.433767,604.208287 508.10734,601.534715 511.315627,601.534715 C514.523914,601.534715 517.197487,604.208287 517.197487,607.416575 L517.197487,664.898391 C517.197487,668.106678 514.523914,670.780251 511.315627,670.780251 L510.780912,670.780251 C507.839982,670.780251 506.235839,669.443465 504.631695,667.037249 L469.340533,621.319154 L469.340533,664.898391 C469.340533,668.106678 466.666961,670.780251 463.458673,670.780251 C460.250386,670.780251 457.576813,668.106678 457.576813,664.898391 L457.576813,607.683932 Z M537.249284,636.558519 C537.249284,616.77408 551.953934,601 572.540445,601 C583.234737,601 590.186026,604.208287 596.067886,608.753361 C597.404673,609.82279 598.474102,611.426934 598.474102,613.565792 C598.474102,616.77408 595.800529,619.447653 592.592242,619.447653 C590.988098,619.447653 589.651311,618.912938 588.84924,618.378223 C584.036808,614.635222 578.95702,612.229006 572.540445,612.229006 C559.439938,612.229006 549.815076,622.923297 549.815076,636.291162 L549.815076,636.558519 C549.815076,649.926383 559.439938,660.888032 572.540445,660.888032 C579.759092,660.888032 584.571523,658.481816 589.651311,654.2041 C590.453383,653.402028 591.79017,652.867313 593.394313,652.867313 C596.335244,652.867313 599.008816,655.540886 599.008816,658.481816 C599.008816,660.353317 598.206745,661.690104 597.137315,662.759533 C590.720741,668.374036 583.234737,671.84968 572.273088,671.84968 C552.221292,671.84968 537.249284,656.342958 537.249284,636.558519 Z M636.438836,644.044523 L612.911395,611.694291 C612.109323,610.624862 611.574609,609.020719 611.574609,607.416575 C611.574609,604.208287 614.248182,601.534715 617.723826,601.534715 C620.397399,601.534715 622.001543,602.871501 623.605687,605.277717 L642.588054,632.815517 L661.837778,605.277717 C663.174565,603.138858 665.046066,601.534715 667.719639,601.534715 C671.195283,601.534715 673.601499,604.208287 673.601499,607.416575 C673.601499,609.020719 672.799427,610.624862 671.997355,611.694291 L648.469914,643.777166 L648.469914,665.165748 C648.469914,668.374036 645.796341,671.047609 642.320696,671.047609 C639.112409,671.047609 636.438836,668.374036 636.438836,665.165748 L636.438836,644.044523 Z M722.527882,636.558519 C722.527882,616.77408 737.232533,601 757.819043,601 C768.513335,601 775.464624,604.208287 781.346484,608.753361 C782.683271,609.82279 783.7527,611.426934 783.7527,613.565792 C783.7527,616.77408 781.079127,619.447653 777.87084,619.447653 C776.266696,619.447653 774.92991,618.912938 774.127838,618.378223 C769.315407,614.635222 764.235618,612.229006 757.819043,612.229006 C744.718536,612.229006 735.093674,622.923297 735.093674,636.291162 L735.093674,636.558519 C735.093674,649.926383 744.718536,660.888032 757.819043,660.888032 C765.03769,660.888032 769.850121,658.481816 774.92991,654.2041 C775.731981,653.402028 777.068768,652.867313 778.672912,652.867313 C781.613842,652.867313 784.287415,655.540886 784.287415,658.481816 C784.287415,660.353317 783.485343,661.690104 782.415914,662.759533 C775.999339,668.374036 768.513335,671.84968 757.551686,671.84968 C737.232533,671.84968 722.527882,656.342958 722.527882,636.558519 Z M801.932995,641.638307 L801.932995,607.683932 C801.932995,604.475645 804.606568,601.802072 808.082213,601.802072 C811.2905,601.802072 813.964073,604.475645 813.964073,607.683932 L813.964073,641.103593 C813.964073,653.936742 820.648005,660.620674 831.342297,660.620674 C842.036588,660.620674 848.453163,654.2041 848.453163,641.638307 L848.453163,607.683932 C848.453163,604.475645 851.126736,601.802072 854.60238,601.802072 C857.810668,601.802072 860.484241,604.475645 860.484241,607.683932 L860.484241,641.103593 C860.484241,661.690104 848.987877,671.84968 831.074939,671.84968 C813.429359,671.84968 801.932995,661.422746 801.932995,641.638307 Z M882.674895,607.683932 C882.674895,604.475645 885.348468,601.802072 888.824113,601.802072 C892.0324,601.802072 894.705973,604.475645 894.705973,607.683932 L894.705973,659.818603 L925.719418,659.818603 C928.660348,659.818603 931.333921,662.224818 931.333921,665.433106 C931.333921,668.374036 928.927706,671.047609 925.719418,671.047609 L888.824113,671.047609 C885.348468,671.047609 882.674895,668.374036 882.674895,664.898391 L882.674895,607.683932 Z M955.663434,613.298435 L939.087282,613.298435 C935.878995,613.298435 933.472779,610.624862 933.472779,607.683932 C933.472779,604.743002 935.878995,602.069429 939.087282,602.069429 L984.538021,602.069429 C987.478951,602.069429 990.152524,604.743002 990.152524,607.683932 C990.152524,610.624862 987.746308,613.298435 984.538021,613.298435 L967.694512,613.298435 L967.694512,665.165748 C967.694512,668.374036 965.020939,671.047609 961.545294,671.047609 C958.06965,671.047609 955.396077,668.374036 955.396077,665.165748 L955.663434,613.298435 Z M1006.46132,641.638307 L1006.46132,607.683932 C1006.46132,604.475645 1009.13489,601.802072 1012.61054,601.802072 C1015.81882,601.802072 1018.4924,604.475645 1018.4924,607.683932 L1018.4924,641.103593 C1018.4924,653.936742 1025.17633,660.620674 1035.87062,660.620674 C1046.56491,660.620674 1052.98149,654.2041 1052.98149,641.638307 L1052.98149,607.683932 C1052.98149,604.475645 1055.65506,601.802072 1059.1307,601.802072 C1062.33899,601.802072 1065.01256,604.475645 1065.01256,607.683932 L1065.01256,641.103593 C1065.01256,661.690104 1053.5162,671.84968 1035.60326,671.84968 C1017.95768,671.84968 1006.46132,661.422746 1006.46132,641.638307 Z M1086.93586,608.218647 C1086.93586,604.743002 1089.60943,602.069429 1093.08508,602.069429 L1117.68195,602.069429 C1126.23738,602.069429 1132.92131,604.743002 1137.46639,609.020719 C1141.20939,612.763721 1143.08089,617.843509 1143.08089,623.725369 L1143.08089,623.992726 C1143.08089,634.954375 1136.66432,641.638307 1127.57417,644.579237 L1140.67467,661.155389 C1141.7441,662.492175 1142.54618,663.828962 1142.54618,665.700463 C1142.54618,668.90875 1139.60525,671.314966 1136.66432,671.314966 C1133.99074,671.314966 1132.11924,669.978179 1130.78246,668.106678 L1114.2063,646.985453 L1098.96694,646.985453 L1098.96694,665.433106 C1098.96694,668.641393 1096.29337,671.314966 1093.08508,671.314966 C1089.60943,671.314966 1086.93586,668.641393 1086.93586,665.433106 L1086.93586,608.218647 Z M1116.61252,636.023804 C1125.16795,636.023804 1130.78246,631.47873 1130.78246,624.527441 L1130.78246,624.260084 C1130.78246,617.041437 1125.43531,613.031078 1116.61252,613.031078 L1098.96694,613.031078 L1098.96694,636.023804 L1116.61252,636.023804 Z M1163.13269,664.631034 L1163.13269,608.218647 C1163.13269,604.743002 1165.80626,602.069429 1169.2819,602.069429 L1209.11814,602.069429 C1212.05907,602.069429 1214.46529,604.475645 1214.46529,607.416575 C1214.46529,610.357505 1212.05907,612.763721 1209.11814,612.763721 L1175.16376,612.763721 L1175.16376,630.676659 L1204.57307,630.676659 C1207.514,630.676659 1209.92021,633.082874 1209.92021,636.291162 C1209.92021,639.232092 1207.514,641.638307 1204.57307,641.638307 L1175.16376,641.638307 L1175.16376,660.08596 L1209.65285,660.08596 C1212.59378,660.08596 1215,662.492175 1215,665.433106 C1215,668.374036 1212.59378,670.780251 1209.65285,670.780251 L1169.2819,670.780251 C1165.80626,670.512894 1163.13269,668.106678 1163.13269,664.631034 Z" id="Combined-Shape"></path>
        </g>
    </g>
</svg>
