<svg viewBox="0 0 1217 673" xmlns="http://www.w3.org/2000/svg"><title>Group</title><defs><linearGradient x1="0%" y1="0%" x2="102%" y2="101%" id="a"><stop stop-color="#3023AE" offset="0%"/><stop stop-color="#C96DD8" offset="100%"/></linearGradient></defs><g fill="url(#a)" fill-rule="evenodd"><path d="M1216.464 435.043v75.951c0 16.64-14.207 30.059-30.827 28.449-10.723-1.074-21.177-2.684-30.827-4.563-73.45-15.029-121.968-55.018-160.033-106.01-5.63-6.978-11.259-13.419-17.156-19.323l-.268-.268c-21.981-25.496-57.097-38.379-93.822-38.379h-5.898c-36.724 0-71.84 13.151-93.553 38.379l-.268.268c-5.897 5.904-11.794 12.345-17.156 19.323-19.032 25.496-40.745 48.309-67.015 66.558-26.002 18.25-56.561 31.938-93.285 39.452-20.105 4.026-41.818 6.173-65.944 6.173-127.597 0-233.75-84.003-261.092-206.115-4.557-20.129-6.97-40.794-6.97-62.801v-1.61c0-19.055 1.877-37.574 5.362-55.287 5.897-30.058 16.62-58.238 31.631-83.466C353.305 55.823 434.528 4.562 532.907.537c4.289-.269 8.578-.269 12.867-.269 92.48 0 156.28 33.816 201.582 84.808 10.99 12.346 9.114 31.4-4.021 41.33l-64.603 49.92c-11.526 8.856-27.61 7.514-37.797-2.684-26.002-26.033-56.024-41.868-96.77-41.868-54.416 0-96.77 34.621-114.73 83.466-5.898 16.64-9.382 34.89-9.382 53.945v1.61c0 23.349 4.557 45.088 12.867 64.143 19.568 44.819 60.045 74.609 110.977 74.609 44.766 0 74.521-17.445 101.06-44.82 5.629-5.635 10.722-11.808 16.083-18.25 21.445-29.52 48.251-54.749 80.687-73.267 1.072-.536 2.144-1.342 3.216-1.61 25.198-13.419 53.345-23.08 83.1-28.18 2.412-.268 4.557-.805 6.97-1.073.803-.269 1.34-.269 2.144-.269 5.093-.805 9.918-1.342 15.28-1.61 8.845-.805 17.96-1.074 27.341-1.074 9.383 0 18.497.537 27.343 1.074 3.216.268 6.165.537 9.114.805 1.876.269 3.485.537 5.361.805.804 0 1.876.269 2.68.269 32.704 4.562 62.995 14.76 90.07 29.253 1.34.537 2.412 1.342 3.484 1.879 32.168 18.518 58.17 43.477 79.346 72.73.537.537.805 1.074 1.34 1.61 4.826 5.905 10.187 11.004 15.28 16.104 21.713 22.812 45.57 38.915 78.006 44.014 14.476 1.878 24.662 13.419 24.662 27.106zm-962.61-162.906v-1.61c0-18.787 1.877-37.305 5.094-55.287h-86.584c-15.548 0-28.415-12.614-28.415-28.448v-26.838c0-15.566 12.599-28.448 28.415-28.448h115.534c1.609-3.22 3.485-6.173 5.093-9.393 33.24-56.897 85.244-99.3 146.63-121.845H28.415C12.599.537 0 13.151 0 28.985v473.421c0 15.566 12.599 28.449 28.415 28.449h87.12c15.547 0 28.414-12.614 28.414-28.449v-139.02c0-15.566 12.599-28.448 28.415-28.448h87.924c-4.29-20.397-6.434-41.33-6.434-62.801zM2 608.219c0-3.476 2.674-6.15 6.15-6.15h39.835c2.941 0 5.615 2.407 5.615 5.615 0 2.94-2.406 5.614-5.615 5.614H14.031v18.715h29.677c2.94 0 5.614 2.407 5.614 5.615 0 2.94-2.406 5.614-5.614 5.614H14.03V665.7c0 3.209-2.673 5.882-5.882 5.882C4.674 671.582 2 668.91 2 665.7V608.22zm69.513 0c0-3.476 2.673-6.15 6.15-6.15h24.596c8.555 0 15.24 2.674 19.784 6.952 3.743 3.743 5.615 8.823 5.615 14.704v.268c0 10.961-6.417 17.645-15.507 20.586l13.1 16.576c1.07 1.337 1.872 2.674 1.872 4.545 0 3.209-2.94 5.615-5.882 5.615-2.673 0-4.545-1.337-5.882-3.208l-16.576-21.122H83.544v18.448c0 3.208-2.674 5.882-5.882 5.882-3.476 0-6.15-2.674-6.15-5.882V608.22zm29.677 27.805c8.555 0 14.17-4.545 14.17-11.497v-.267c0-7.219-5.348-11.229-14.17-11.229H83.544v22.993h17.646zm46.52 28.607v-56.412c0-3.476 2.673-6.15 6.149-6.15h39.836c2.941 0 5.347 2.407 5.347 5.348 0 2.94-2.406 5.347-5.347 5.347h-33.954v17.913h29.41c2.94 0 5.346 2.406 5.346 5.614 0 2.941-2.406 5.347-5.347 5.347h-29.41v18.448h34.49c2.94 0 5.347 2.406 5.347 5.347 0 2.941-2.406 5.347-5.347 5.347h-40.638c-3.209-.267-5.882-2.673-5.882-6.149zm67.908-28.072c0-19.518 14.972-35.559 35.826-35.559s35.826 16.041 35.826 35.291v.268c0 7.753-2.673 14.972-6.951 21.12l4.278 3.744c1.336 1.07 2.139 2.673 2.139 4.812 0 3.208-2.674 5.882-5.615 5.882-1.871 0-3.208-.802-4.278-1.871l-4.812-4.278c-5.882 4.01-12.833 6.416-20.854 6.416-20.854-.534-35.559-16.576-35.559-35.825zm36.896 9.09c0-3.209 2.673-5.882 5.614-5.882 1.872 0 2.941.535 4.278 1.871l8.823 8.021c2.139-3.743 3.208-8.02 3.208-13.1v-.268c0-13.368-9.625-24.33-23.26-24.33-13.635 0-22.993 10.962-22.993 24.063v.267c0 13.368 9.625 24.33 23.26 24.33 4.545 0 8.556-1.07 11.764-3.209l-8.555-7.218c-1.07-1.07-2.14-2.674-2.14-4.545zm53.471-4.01v-33.955c0-3.208 2.674-5.882 6.15-5.882 3.208 0 5.881 2.674 5.881 5.882v33.42c0 12.833 6.684 19.517 17.379 19.517 10.694 0 17.11-6.417 17.11-18.983v-33.954c0-3.208 2.674-5.882 6.15-5.882 3.208 0 5.881 2.674 5.881 5.882v33.42c0 20.586-11.496 30.746-29.409 30.746-17.645 0-29.142-10.427-29.142-30.212zm80.742 22.992v-56.412c0-3.476 2.674-6.15 6.15-6.15h39.836c2.94 0 5.347 2.407 5.347 5.348 0 2.94-2.406 5.347-5.347 5.347h-33.955v17.913h29.41c2.94 0 5.347 2.406 5.347 5.614 0 2.941-2.407 5.347-5.347 5.347h-29.41v18.448h34.49c2.94 0 5.346 2.406 5.346 5.347 0 2.941-2.406 5.347-5.347 5.347h-40.37c-3.476-.267-6.15-2.673-6.15-6.149zm70.85-56.947c0-3.208 2.673-6.15 6.149-6.15h1.337c2.94 0 4.545 1.338 6.149 3.476l34.222 44.382v-41.975c0-3.209 2.673-5.882 5.882-5.882 3.208 0 5.881 2.673 5.881 5.882v57.481c0 3.209-2.673 5.882-5.881 5.882h-.535c-2.941 0-4.545-1.337-6.15-3.743l-35.29-45.718v43.58c0 3.208-2.674 5.881-5.882 5.881-3.209 0-5.882-2.673-5.882-5.882v-57.214zm79.672 28.875c0-19.785 14.705-35.559 35.291-35.559 10.695 0 17.646 3.208 23.528 7.753 1.337 1.07 2.406 2.674 2.406 4.813 0 3.208-2.673 5.882-5.882 5.882-1.604 0-2.94-.535-3.743-1.07-4.812-3.743-9.892-6.149-16.309-6.149-13.1 0-22.725 10.694-22.725 24.062v.268c0 13.367 9.625 24.329 22.725 24.329 7.22 0 12.032-2.406 17.111-6.684.802-.802 2.14-1.337 3.743-1.337 2.941 0 5.615 2.674 5.615 5.615 0 1.871-.802 3.208-1.872 4.278-6.416 5.614-13.902 9.09-24.864 9.09-20.052 0-35.024-15.507-35.024-35.291zm99.19 7.486l-23.528-32.35c-.802-1.07-1.336-2.674-1.336-4.278 0-3.209 2.673-5.882 6.149-5.882 2.673 0 4.278 1.337 5.882 3.743l18.982 27.538 19.25-27.538c1.337-2.14 3.208-3.743 5.882-3.743 3.475 0 5.881 2.673 5.881 5.882 0 1.604-.802 3.208-1.604 4.277l-23.527 32.083v21.389c0 3.208-2.674 5.882-6.15 5.882-3.208 0-5.881-2.674-5.881-5.882v-21.121zm86.089-7.486c0-19.785 14.705-35.559 35.291-35.559 10.694 0 17.646 3.208 23.527 7.753 1.337 1.07 2.407 2.674 2.407 4.813 0 3.208-2.674 5.882-5.882 5.882-1.604 0-2.941-.535-3.743-1.07-4.813-3.743-9.892-6.149-16.309-6.149-13.1 0-22.725 10.694-22.725 24.062v.268c0 13.367 9.625 24.329 22.725 24.329 7.219 0 12.031-2.406 17.11-6.684.803-.802 2.14-1.337 3.744-1.337 2.94 0 5.614 2.674 5.614 5.615 0 1.871-.802 3.208-1.871 4.278-6.417 5.614-13.903 9.09-24.864 9.09-20.32 0-35.024-15.507-35.024-35.291zm79.405 5.08v-33.955c0-3.208 2.674-5.882 6.15-5.882 3.207 0 5.881 2.674 5.881 5.882v33.42c0 12.833 6.684 19.517 17.378 19.517 10.695 0 17.111-6.417 17.111-18.983v-33.954c0-3.208 2.674-5.882 6.15-5.882 3.208 0 5.881 2.674 5.881 5.882v33.42c0 20.586-11.496 30.746-29.41 30.746-17.645 0-29.141-10.427-29.141-30.212zm80.742-33.955c0-3.208 2.673-5.882 6.15-5.882 3.207 0 5.881 2.674 5.881 5.882v52.135h31.013c2.941 0 5.615 2.406 5.615 5.614 0 2.941-2.406 5.615-5.615 5.615h-36.895c-3.476 0-6.15-2.674-6.15-6.15v-57.214zm72.988 5.614h-16.576c-3.208 0-5.614-2.673-5.614-5.614s2.406-5.615 5.614-5.615h45.451c2.941 0 5.615 2.674 5.615 5.615 0 2.94-2.407 5.614-5.615 5.614h-16.843v51.868c0 3.208-2.674 5.882-6.15 5.882-3.475 0-6.149-2.674-6.149-5.882l.267-51.868zm50.798 28.34v-33.954c0-3.208 2.674-5.882 6.15-5.882 3.208 0 5.881 2.674 5.881 5.882v33.42c0 12.833 6.684 19.517 17.379 19.517 10.694 0 17.11-6.417 17.11-18.983v-33.954c0-3.208 2.674-5.882 6.15-5.882 3.208 0 5.882 2.674 5.882 5.882v33.42c0 20.586-11.497 30.746-29.41 30.746-17.645 0-29.142-10.427-29.142-30.212zm80.475-33.42c0-3.475 2.673-6.149 6.15-6.149h24.596c8.555 0 15.24 2.674 19.784 6.952 3.743 3.743 5.615 8.823 5.615 14.704v.268c0 10.961-6.417 17.645-15.507 20.586l13.1 16.576c1.07 1.337 1.872 2.674 1.872 4.545 0 3.209-2.94 5.615-5.882 5.615-2.673 0-4.545-1.337-5.882-3.208l-16.576-21.122h-15.24v18.448c0 3.208-2.673 5.882-5.88 5.882-3.477 0-6.15-2.674-6.15-5.882V608.22zm29.677 27.806c8.555 0 14.17-4.545 14.17-11.497v-.267c0-7.219-5.348-11.229-14.17-11.229h-17.646v22.993h17.646zm46.52 28.607v-56.412c0-3.476 2.673-6.15 6.149-6.15h39.836c2.941 0 5.347 2.407 5.347 5.348 0 2.94-2.406 5.347-5.347 5.347h-33.954v17.913h29.41c2.94 0 5.346 2.406 5.346 5.614 0 2.941-2.406 5.347-5.347 5.347h-29.41v18.448h34.49c2.94 0 5.347 2.406 5.347 5.347 0 2.941-2.406 5.347-5.347 5.347h-40.371c-3.476-.267-6.15-2.673-6.15-6.149z"/></g></svg>