<svg viewBox="0 0 1213 72" xmlns="http://www.w3.org/2000/svg"><title>Combined Shape</title><defs><linearGradient x1="0%" y1="0%" x2="102%" y2="101%" id="a"><stop stop-color="#3023AE" offset="0%"/><stop stop-color="#C96DD8" offset="100%"/></linearGradient></defs><path d="M0 7.219c0-3.476 2.674-6.15 6.15-6.15h39.835c2.941 0 5.615 2.407 5.615 5.615 0 2.94-2.406 5.614-5.615 5.614H12.031v18.715h29.677c2.94 0 5.614 2.407 5.614 5.615 0 2.94-2.406 5.614-5.614 5.614H12.03V64.7c0 3.209-2.673 5.882-5.882 5.882C2.674 70.582 0 67.91 0 64.7V7.22zm69.513 0c0-3.476 2.673-6.15 6.15-6.15h24.596c8.555 0 15.24 2.674 19.784 6.952 3.743 3.743 5.615 8.823 5.615 14.704v.268c0 10.961-6.417 17.645-15.507 20.586l13.1 16.576c1.07 1.337 1.872 2.674 1.872 4.545 0 3.209-2.94 5.615-5.882 5.615-2.673 0-4.545-1.337-5.882-3.208L96.783 45.985H81.544v18.448c0 3.208-2.674 5.882-5.882 5.882-3.476 0-6.15-2.674-6.15-5.882V7.22zM99.19 35.024c8.555 0 14.17-4.545 14.17-11.497v-.267c0-7.219-5.348-11.229-14.17-11.229H81.544v22.993H99.19zm46.52 28.607V7.219c0-3.476 2.673-6.15 6.149-6.15h39.836c2.941 0 5.347 2.407 5.347 5.348 0 2.94-2.406 5.347-5.347 5.347h-33.954v17.913h29.41c2.94 0 5.346 2.406 5.346 5.614 0 2.941-2.406 5.347-5.347 5.347h-29.41v18.448h34.49c2.94 0 5.347 2.406 5.347 5.347 0 2.941-2.406 5.347-5.347 5.347h-40.638c-3.209-.267-5.882-2.673-5.882-6.149zm67.908-28.072C213.618 16.04 228.59 0 249.444 0s35.826 16.041 35.826 35.291v.268c0 7.753-2.673 14.972-6.951 21.12l4.278 3.744c1.336 1.07 2.139 2.673 2.139 4.812 0 3.208-2.674 5.882-5.615 5.882-1.871 0-3.208-.802-4.278-1.871l-4.812-4.278c-5.882 4.01-12.833 6.416-20.854 6.416-20.854-.534-35.559-16.576-35.559-35.825zm36.896 9.09c0-3.209 2.673-5.882 5.614-5.882 1.872 0 2.941.535 4.278 1.871l8.823 8.021c2.139-3.743 3.208-8.02 3.208-13.1v-.268c0-13.368-9.625-24.33-23.26-24.33-13.635 0-22.993 10.962-22.993 24.063v.267c0 13.368 9.625 24.33 23.26 24.33 4.545 0 8.556-1.07 11.764-3.209l-8.555-7.218c-1.07-1.07-2.14-2.674-2.14-4.545zm53.471-4.01V6.683c0-3.208 2.674-5.882 6.15-5.882 3.208 0 5.881 2.674 5.881 5.882v33.42c0 12.833 6.684 19.517 17.379 19.517 10.694 0 17.11-6.417 17.11-18.983V6.684c0-3.208 2.674-5.882 6.15-5.882 3.208 0 5.881 2.674 5.881 5.882v33.42c0 20.586-11.496 30.746-29.409 30.746-17.645 0-29.142-10.427-29.142-30.212zm80.742 22.992V7.219c0-3.476 2.674-6.15 6.15-6.15h39.836c2.94 0 5.347 2.407 5.347 5.348 0 2.94-2.406 5.347-5.347 5.347h-33.955v17.913h29.41c2.94 0 5.347 2.406 5.347 5.614 0 2.941-2.407 5.347-5.347 5.347h-29.41v18.448h34.49c2.94 0 5.346 2.406 5.346 5.347 0 2.941-2.406 5.347-5.347 5.347h-40.37c-3.476-.267-6.15-2.673-6.15-6.149zm70.85-56.947c0-3.208 2.673-6.15 6.149-6.15h1.337c2.94 0 4.545 1.338 6.149 3.476l34.222 44.382V6.417c0-3.209 2.673-5.882 5.882-5.882 3.208 0 5.881 2.673 5.881 5.882v57.481c0 3.209-2.673 5.882-5.881 5.882h-.535c-2.941 0-4.545-1.337-6.15-3.743l-35.29-45.718V63.9c0 3.208-2.674 5.881-5.882 5.881-3.209 0-5.882-2.673-5.882-5.882V6.684zm79.672 28.875C535.25 15.774 549.954 0 570.54 0c10.695 0 17.646 3.208 23.528 7.753 1.337 1.07 2.406 2.674 2.406 4.813 0 3.208-2.673 5.882-5.882 5.882-1.604 0-2.94-.535-3.743-1.07-4.812-3.743-9.892-6.149-16.309-6.149-13.1 0-22.725 10.694-22.725 24.062v.268c0 13.367 9.625 24.329 22.725 24.329 7.22 0 12.032-2.406 17.111-6.684.802-.802 2.14-1.337 3.743-1.337 2.941 0 5.615 2.674 5.615 5.615 0 1.871-.802 3.208-1.872 4.278-6.416 5.614-13.902 9.09-24.864 9.09-20.052 0-35.024-15.507-35.024-35.291zm99.19 7.486l-23.528-32.35c-.802-1.07-1.336-2.674-1.336-4.278 0-3.209 2.673-5.882 6.149-5.882 2.673 0 4.278 1.337 5.882 3.743l18.982 27.538 19.25-27.538c1.337-2.14 3.208-3.743 5.882-3.743 3.475 0 5.881 2.673 5.881 5.882 0 1.604-.802 3.208-1.604 4.277L646.47 42.777v21.389c0 3.208-2.674 5.882-6.15 5.882-3.208 0-5.881-2.674-5.881-5.882V43.045zm86.089-7.486C720.528 15.774 735.233 0 755.819 0c10.694 0 17.646 3.208 23.527 7.753 1.337 1.07 2.407 2.674 2.407 4.813 0 3.208-2.674 5.882-5.882 5.882-1.604 0-2.941-.535-3.743-1.07-4.813-3.743-9.892-6.149-16.309-6.149-13.1 0-22.725 10.694-22.725 24.062v.268c0 13.367 9.625 24.329 22.725 24.329 7.219 0 12.031-2.406 17.11-6.684.803-.802 2.14-1.337 3.744-1.337 2.94 0 5.614 2.674 5.614 5.615 0 1.871-.802 3.208-1.871 4.278-6.417 5.614-13.903 9.09-24.864 9.09-20.32 0-35.024-15.507-35.024-35.291zm79.405 5.08V6.683c0-3.208 2.674-5.882 6.15-5.882 3.207 0 5.881 2.674 5.881 5.882v33.42c0 12.833 6.684 19.517 17.378 19.517 10.695 0 17.111-6.417 17.111-18.983V6.684c0-3.208 2.674-5.882 6.15-5.882 3.208 0 5.881 2.674 5.881 5.882v33.42c0 20.586-11.496 30.746-29.41 30.746-17.645 0-29.141-10.427-29.141-30.212zm80.742-33.955c0-3.208 2.673-5.882 6.15-5.882 3.207 0 5.881 2.674 5.881 5.882v52.135h31.013c2.941 0 5.615 2.406 5.615 5.614 0 2.941-2.406 5.615-5.615 5.615h-36.895c-3.476 0-6.15-2.674-6.15-6.15V6.684zm72.988 5.614h-16.576c-3.208 0-5.614-2.673-5.614-5.614s2.406-5.615 5.614-5.615h45.451c2.941 0 5.615 2.674 5.615 5.615 0 2.94-2.407 5.614-5.615 5.614h-16.843v51.868c0 3.208-2.674 5.882-6.15 5.882-3.475 0-6.149-2.674-6.149-5.882l.267-51.868zm50.798 28.34V6.684c0-3.208 2.674-5.882 6.15-5.882 3.208 0 5.881 2.674 5.881 5.882v33.42c0 12.833 6.684 19.517 17.379 19.517 10.694 0 17.11-6.417 17.11-18.983V6.684c0-3.208 2.674-5.882 6.15-5.882 3.208 0 5.882 2.674 5.882 5.882v33.42c0 20.586-11.497 30.746-29.41 30.746-17.645 0-29.142-10.427-29.142-30.212zm80.475-33.42c0-3.475 2.673-6.149 6.15-6.149h24.596c8.555 0 15.24 2.674 19.784 6.952 3.743 3.743 5.615 8.823 5.615 14.704v.268c0 10.961-6.417 17.645-15.507 20.586l13.1 16.576c1.07 1.337 1.872 2.674 1.872 4.545 0 3.209-2.94 5.615-5.882 5.615-2.673 0-4.545-1.337-5.882-3.208l-16.576-21.122h-15.24v18.448c0 3.208-2.673 5.882-5.88 5.882-3.477 0-6.15-2.674-6.15-5.882V7.22zm29.677 27.806c8.555 0 14.17-4.545 14.17-11.497v-.267c0-7.219-5.348-11.229-14.17-11.229h-17.646v22.993h17.646zm46.52 28.607V7.219c0-3.476 2.673-6.15 6.149-6.15h39.836c2.941 0 5.347 2.407 5.347 5.348 0 2.94-2.406 5.347-5.347 5.347h-33.954v17.913h29.41c2.94 0 5.346 2.406 5.346 5.614 0 2.941-2.406 5.347-5.347 5.347h-29.41v18.448h34.49c2.94 0 5.347 2.406 5.347 5.347 0 2.941-2.406 5.347-5.347 5.347h-40.371c-3.476-.267-6.15-2.673-6.15-6.149z" fill="url(#a)" fill-rule="evenodd"/></svg>