<svg viewBox="0 0 738 268" xmlns="http://www.w3.org/2000/svg" xmlns:xlink="http://www.w3.org/1999/xlink"><title>Kinetik_logo_final Copy</title><defs><path id="a" d="M661 0v18h60v220H18V18h69V0H0v256h738V0z"/><linearGradient x1="0%" y1="0%" x2="102%" y2="101%" id="b"><stop stop-color="#3023AE" offset="0%"/><stop stop-color="#C96DD8" offset="100%"/></linearGradient><path id="d" d="M56.43 112.528L30.533 68.637l-7.907 12.444v31.446H.096V.37h22.53v50.951L54.243.37h26.232L44.658 53.167 83 112.528z"/><path id="f" d="M.488 112.528V.37h22.534v112.158z"/><path id="h" d="M60.975 112.528L22.799 46.273v66.255H.269V.37h22.869l36.659 63.895V.37h22.701v112.158z"/><path id="j" d="M.572 112.528V.37h64.24v19.841H23.105v25.39h40.529v19.84H23.105v27.244h41.707v19.843H.572z"/><path id="l" d="M25.521 112.528V20.211H.635V.37h72.307v19.841H48.056v92.317z"/><path id="n" d="M.795 112.528V.37h22.534v112.158z"/><path id="p" d="M56.913 112.528L31.016 68.637l-7.904 12.444v31.446H.578V.37h22.534v50.951L54.725.37h26.236L45.138 53.167l38.343 59.361z"/><path d="M576.895 19.704c-1.091-.284-1.672-.759-2.079-1.272-.976-1.245-1.885-2.494-5.206-3.206-.347-.069-.417-.393-.429-.608-.156-3.36-.249-6.732-.441-10.093-.055-.981-.369-1.963-.782-2.945v6.541c-.004 2.172-.012 4.348-.018 6.521h-1.204V.883h-.4v16.065h-1.211V.883h-.408V15.72h-1.214V.883h-.4v16.222h-1.217V.883h-.403V17.41h-1.212V.883h-.407v15.915c-.404 0-.81-.004-1.212-.004V.883h-.409c0 .944.029 1.892-.004 2.836-.119 3.846-.256 7.693-.413 11.542-.015.305-.306.609-.79.903V.882h-.408c-.133 5.131-.235 10.264-.428 15.398-.038 1.136-.366 2.268-.787 3.401V.882h-.403c-.133 5.645-.256 11.282-.424 16.931-.021.623-.349 1.241-.787 1.864v-5.809c0-1.974.009-3.94-.007-5.911-.005-1.933-.026-3.863-.045-5.799l-.734.011V16.03c-.195.003-.391.008-.584.018-.538-1.143-.172-2.31-.238-3.466-.068-1.204-.013-2.405-.013-3.605V1.762c-.1-.007-.205-.01-.308-.018-.168.483-.467.965-.479 1.447-.052 2.279.03 4.557-.033 6.829-.084 2.987-.258 5.97-.398 8.953-.002.092-.081.185-.122.284-.226-.003-.452-.003-.678-.003V.883h-.411V17.41h-1.21V.883h-.404v16.369h-1.215V.883h-.403v15.299h-1.214V.883h-.403v15.915h-1.214V.883h-.404V15.72h-1.216V.883h-.403v16.065h-1.21V.883h-.411v17.136h-.972V1.137h-.812V14.79h-1.047V.884h-.399v8.837c-.329 0-.657-.007-.981-.007V1.268l-.637-.003c-.136 1.122-.328 2.247-.394 3.366-.068 1.153.065 2.305-.03 3.455-.157 1.871-.431 3.739-1.04 5.614a25.464 25.464 0 0 0-.408-.855c-.116.444-.172.653-.229.861-.106 0-.211 0-.314-.006V3.115h-.578v12.418c-.264 0-.521.003-.78.003V2.691h-.599v11.303h-.485V.885h-.403v5.111h-.209c-.202-1.707-.401-3.407-.596-5.111h-.812v5.423c-.115.002-.224.002-.337.002V1.754h-.417v2.723h-.463V.885h-.403v5.733h-.335V2.061c-.145 0-.281-.003-.42-.003v2.723h-.455V.884h-.407V12.8h-1.212V.882h-.404v4.509h-.082c-.379-1.505-.756-3.01-1.132-4.509h-.403v4.194c-.12 0-.232 0-.346.007V2.51h-.421v3.195h-.447V.881h-.404v3.13c-.109.004-.224.004-.336.011v-.886l-.427-.003v1.954h-.453V.882h-.398v5.306c-.219.003-.435.003-.65.003-.305-1.334-.616-2.672-.924-4.006-.104.004-.208.004-.31.007-.201 1.218-.409 2.436-.606 3.65-.186.007-.365.007-.551.01V2.298c-.209.007-.421.01-.631.017v3.256c-.264 0-.525.007-.783.007V.881h-.81v4.803c-.114 0-.22.007-.332.007V1.75c-.14 0-.278 0-.418-.007V3.7h-.461V.881h-.408v12.337h-.328V1.61c-.129 0-.271-.004-.407-.007v2.863h-.475V.881h-.403v5.43h-.333V2.968c-.134-.007-.271-.007-.396-.014-.046.301-.093.602-.142.899h-.349V.88h-.403v4.656c-.114 0-.225 0-.332.003V1.136c-.141 0-.271-.003-.411-.003v1.949c-.154.004-.312.004-.469.004V.879h-.403v5.269c-.116 0-.23.003-.339.003V1.6c-.144 0-.28-.004-.418-.004v3.339h-.454V.881h-.411v4.194c-.109 0-.225 0-.346.007v-2.72h-.409v2.726h-.452V.88h-.408v18.21h-1.012V1.263c-.199-.003-.39-.003-.585-.003v2.764c-.11 0-.219.007-.328.007-.408-.766-.808-1.536-1.313-2.501v3.621c0 1.792.149 3.592-.041 5.381-.236 2.285-.739 4.578-1.147 6.911v-6.158c-.119-.003-.246-.003-.371-.003v2.88h-.604V5.296c-.225-.004-.447-.008-.666-.01v.738c0 3.154.002 6.298-.011 9.452 0 .188-.131.37-.208.554-.192-.198-.559-.386-.565-.585-.052-1.331.023-2.665-.04-3.996-.075-1.604-.142-3.206-.424-4.804-.206-1.169-.752-2.329-1.367-3.509v6.117h-.819V3.122h-.583v5.21h-.241c-.261-2.045-.518-4.095-.781-6.143-.208.003-.417.003-.626.006v5.993h-.407V4.645l-.375.003v1.81c-.123 0-.251.003-.377.003V2.657c-.14.004-.287.004-.424.004v6.441h-.429V4.644h-.378v1.66h-.381V1.898h-.409v6.126c-.125.008-.252.008-.371.008-.062-.418-.112-.832-.164-1.253h-.212c-.072.315-.141.627-.211.941-.114 0-.224 0-.329-.003V3.256h-.353V7.07h-.328V5.268c-.097-.004-.209-.014-.305-.018-.131.157-.253.314-.376.479-.091-.006-.176-.006-.268-.01V2.641h-.336v4.738c-.122.003-.249.007-.377.007V5.743h-.431v2.429c-.14 0-.283 0-.431-.004v-6.76c-.045 0-.092.007-.144.007-.275 1.762-.546 3.527-.851 5.29-.019.092-.347.18-.691.345V3.896h-.492v10.855c-.199.003-.401.003-.6.003-.312-3.475.489-6.975-1.297-10.423V7.69c-.133.006-.256.006-.386.006 0-.865.041-1.73-.045-2.593-.014-.15-.53-.301-.817-.445-.113.154-.336.308-.34.469-.029 1.016-.013 2.039-.013 3.051h-.551V1.88c-.273 0-.548 0-.82-.003v6.77h-.605V4.524c-.121 0-.247-.01-.37-.01v1.177h-.436V3.122l-.42.003v6.127h-.431V4.644c-.117-.003-.251-.003-.369-.003v1.501h-.38V2.209h-.605v11.313c-.281 0-.555.003-.839.003V3.406h-.605v4.119c-.146.003-.294.003-.448.01 0-.243.04-.486-.003-.729-.311-1.693-.644-3.38-1.185-5.074v5.525h-.435V4.951h-.373v2.433h-.379V2.97c-.14 0-.28-.003-.428-.003v4.444h-.427V5.252h-.38v1.813l-.366.003V1.896h-.473c0 1.022.164 2.049-.034 3.065-.435 2.295-1.061 4.587-1.562 6.883-.104.465-.018.941-.35 1.444-.25-.178-.507-.349-.78-.541-.218.537-.435 1.05-.649 1.563-.069 0-.138 0-.206-.007V7.109c-.177-.017-.359-.035-.54-.048-.241.322-.691.636-.697.95-.062 2.348-.038 4.705-.438 7.065V13.78c0-1.331-.011-2.662 0-3.993.007-1.574.071-3.154-1.597-4.84v7.68h-.359V5.562l-.299-.01c-.12.164-.226.329-.341.496-.091 0-.183-.01-.272-.013V3.134c-.105 0-.211 0-.323-.004v5.806h-.396V5.251c-.109 0-.224-.003-.332-.006-.08.256-.158.52-.229.776-.097 0-.203-.003-.302-.007V3.102h-.414v5.535c-.059 0-.122-.003-.185-.003-.298-2.139-.592-4.28-.899-6.417h-.459v5.935h-.427V4.957h-.428v2.459h-.435V2.648h-.373v5.188c-.123.004-.25.004-.376.01V4.497h-.433V6.95h-.438V2.639h-.601V12.79h-.779V3.731h-.6v3.835h-.266c-.388-1.488-.771-2.98-1.154-4.468-.061.003-.122.003-.185.003V7.07c-.1.013-.208.013-.312.021-.089-.26-.184-.517-.271-.77-.093.003-.188.003-.276.007v2.124h-.342V1.895h-.247c-.241 1.625-.488 3.253-.735 4.881-.208 0-.431-.003-.649-.003V4.355l-.336-.003c-.215 1.419-.431 2.833-.677 4.492-.428-1.705-.794-3.172-1.164-4.636-.163-.004-.323-.004-.484-.004v4.287a9.075 9.075 0 0 1-.476-.018c-.176-1.217-.339-2.425-.51-3.649h-.388v3.49h-.309c-.184-1.006-.369-2.022-.56-3.031-.185-.986.448-1.995-.839-2.946v5.511c-.112.004-.219.004-.329.004V4.951h-.424v1.392h-.441V4.947h-.374v5.347h-.361v-5.48h-.435v1.977h-.424V2.634c-.13 0-.249.004-.369.004v6.271c-.202.003-.396.003-.589.003-.222-1.512-.458-3.034-.665-4.546-.042-.311-.009-.613-.344-.92V7.39h-.403V5.252c-.106-.003-.217-.003-.333-.006-.081.256-.163.513-.256.766h-.27V2.5h-.411v5.688h-.379V4.836c-.127 0-.25-.003-.374-.003V7.7h-.431V3.42h-.332c-.045.164-.096.322-.116.482-.271 2.358-.518 4.718-.828 7.072-.085.657-.372 1.3-.563 1.953-.178.004-.356.015-.537.018-.232-1.83-.476-3.664-.729-5.583l-.605 5.289h-.571V4.963c-.198 0-.399 0-.596-.003v11.987h-.417V6.037h-.198c-.21.411-.417.832-.629 1.249-.138-.01-.278-.017-.414-.027V2.213h-.551v5.508h-.414c-.249-.722-.49-1.443-.729-2.166-.243.007-.489.014-.732.024v2.912h-.328V5.593c-.106-.003-.213-.01-.318-.014-.092.257-.188.516-.277.776-.092-.003-.182-.01-.273-.01V2.681c-.191 0-.375-.007-.564-.007v6.727c-.271 0-.541 0-.811-.008V3.907h-.581V8.47h-.26c-.356-2.042-.709-4.082-1.062-6.127h-.359v5.846h-.366V4.837c-.126-.003-.25-.003-.375-.003v2.559h-.43v-4.43h-.434V8.04h-.372V4.838c-.126 0-.253 0-.377-.003v2.401h-.435V2.817c-.137 0-.284-.011-.417-.011v6.155h-.4V7.41l-.312-.002a6.223 6.223 0 0 1-.236.458c-.084 0-.17-.007-.263-.007V4.047c-.12-.007-.233-.007-.356-.007v2.949c-2.233-1.214-.79-2.432-1.626-3.538v4.403h-.431V6.349h-.434v2.145h-.424V2.34h-.188a1497.02 1497.02 0 0 1-.858 4.314c-.197-.003-.407-.008-.608-.008V4.492c-.195 0-.384.006-.576.006v8.759h-.349c-.294-3.028-.58-6.052-.867-9.081h-.57v4.28h-.177a942.8 942.8 0 0 0-.893-4.091c-.179.003-.35.003-.523.003v3.49h-.317c-.378-1.94-.765-3.883-1.146-5.827h-.206V8.49h-.369V4.983c-.131 0-.25-.003-.369-.003v1.799h-.438V5.268h-.431v2.92h-.369V4.532c-.126-.004-.253-.004-.373-.008v2.094h-.435V2.194h-.604v11.029c-.278.007-.56.007-.84.007V3.573h-.605v3.812c-.126.003-.261.003-.384.003-.283-2.166-.563-4.338-.85-6.507h-.404c0 2.583.146 5.176-.041 7.759-.168 2.354-.691 4.701-1.175 7.058 0-.256.028-.517 0-.777-.345-3.116-.703-6.229-1.33-9.342v9.962c-.219.007-.435.017-.656.021-.147-.281-.412-.569-.418-.855-.041-2.05-.021-4.099-.021-6.148 0-.178-.034-.355-.049-.534-1.324.277-.718-.191-.728-.307-.055-.924-.033-1.841-.033-2.76-.2-.004-.409-.004-.606-.007-.274 2.457-.551 4.913-.821 7.365h-.154V4.793h-.294c-.212.869-.43 1.742-.644 2.614-.216.002-.431.01-.646.013l-.66-5.521h-.178v5.822l-.168-.003c-.378-.931-.772-1.847-1.187-2.846-.483.637-.896 1.194-1.505 1.994v-3.91h-.41v6.458h-.374a1592.39 1592.39 0 0 1-1.101-5.802c-.028-.003-.056-.007-.086-.007v4.553h-.428V5.572h-.435v2.925h-.373V2.381h-.376v6.083c-.146 0-.288 0-.432.007V5.416h-.431v2.312h-.659V4.012c-.199.004-.391.004-.589.011a701.573 701.573 0 0 1-.552 3.236h-.242V2.955h-.399c0 1.656.013 3.312-.021 4.975 0 .181-.223.362-.346.541-.285-.181-.802-.37-.815-.562-.064-1.345-.033-2.686-.308-4.03-.397 2.042-.797 4.082-1.188 6.123-.044 0-.085 0-.13.01V3.266h-.396v3.989c-.123 0-.231.003-.342.003a18.046 18.046 0 0 1-.185-.773c-.109.003-.229.003-.342.003v1.851h-.582V2.643c-.201.008-.407.008-.609.008 0 1.261.024 2.531-.024 3.797-.002.191-.3.379-.459.565-.108-.179-.293-.363-.307-.551-.044-.51-.017-1.01-.428-1.519v1.703h-.367V5.135l-.349-.002v1.339c-.177.01-.358.01-.536.015-.175-.873-.353-1.738-.524-2.61h-.416v7.208c-.265 0-.523.004-.787.004V4.527c-.202-.003-.4-.003-.599-.01v3.499h-.405V6.022c-.113-.003-.228-.007-.336-.007-.076.311-.151.623-.23.93l-.312-.003V1.564h-.353v6.275c-.123 0-.246 0-.372.002V5.433c-.141 0-.284-.007-.433-.007V6.78h-.406V4.023c-.11 0-.219-.007-.322-.007-.406.92-.806 1.837-1.31 2.987V3.11c-.147-.004-.283-.004-.43-.004v5.073h-.36V6.517c-.104-.003-.215-.01-.329-.01-.231.66-.464 1.321-.704 1.984h-.226V7.095h-.639v2.477c-.189 0-.374-.007-.562-.007v-.739c-.14-.004-.28-.007-.421-.014 0 .219.039.435-.006.65-.09.476-.226.671-.418.01-.123.024-.355.047-.358.079-.038.199-.018.397-.384.603V8.012c-.172-.01-.346-.018-.522-.021l-1.004 2.948c-.112 0-.232.007-.352.007-.175-.267-.35-.536-.521-.807l-.489.031v1.539h-.37V8.333c-.149 0-.307-.003-.461-.013a1879.58 1879.58 0 0 1-.903 3.718c-.178-.006-.369-.01-.555-.013-.211-1.328-.427-2.662-.639-3.992h-.292v3.841h-.358V9.137a8.072 8.072 0 0 0-.38-.011c-.157.688-.273 1.386-.506 2.07-.068.179-.517.335-.786.502-.139-.149-.356-.3-.384-.447-.174-.825-.298-1.643-.811-2.46v2.737h-.318V9.571c-.171-.007-.338-.021-.518-.032-.382.938-.754 1.875-1.139 2.816a19.5 19.5 0 0 0-.589-.018c0-1.094.015-2.188-.027-3.284-.003-.093-.352-.181-.677-.342v2.375c-.103.006-.195.006-.297.006v-1.074a11.457 11.457 0 0 1-.517-.018c-.186.421-.374.835-.624 1.396l-.275-.9h-.285v1.98h-.414c0-.855.021-1.71-.021-2.565-.007-.14-.298-.274-.458-.417-.109.137-.312.263-.315.404-.026.811-.013 1.625-.426 2.438v-2.158h-.333v2.131c-.096.01-.195.018-.294.027-.268-.318-.534-.632-.995-1.19v2.07h-.394c0-1.061.016-2.125-.021-3.185-.004-.182-.233-.356-.353-.538-.147.17-.394.342-.423.516-.051.507-.017 1.02-.203 1.553-.126-.157-.243-.308-.373-.465l-.247.003v2.771h-.273c-.218-.968-.435-1.94-.656-2.911h-.253v1.98h-.42V9.55h-.337a683.806 683.806 0 0 0-.635 3.233c-.06 0-.121.002-.18.007a55.12 55.12 0 0 0-.149-1.071h-.327v2.613h-.271c-.217-.821-.438-1.635-.657-2.453h-.271v3.523h-.421V9.706h-.603v3.366c-.19 0-.383.003-.585.003v-1.662h-.409v3.681c-.202.002-.405.002-.604.002V9.879c-.202 0-.407 0-.608-.003v3.219h-.428V9.558h-.27c-.146 1.118-.287 2.247-.431 3.369-.165-.003-.332-.003-.497-.003V11.1h-.421v2.313c-.206 0-.413 0-.619.003V10.15c-.194.006-.39.01-.588.013v2.625h-.4v-2.617c-.13 0-.263.003-.396.003v2.621c-.113.01-.227.021-.333.034-.253-.171-.503-.346-.909-.619v3.003h-.288v-4.105a48.184 48.184 0 0 0-.557-.021c-.182.513-.356 1.026-.541 1.539h-.209v-1.833h-.417v4h-.253c-.202-1.075-.403-2.152-.606-3.223h-.352v2.921h-.359V10.52c-.141 0-.29-.004-.435-.007-.198.964-.399 1.929-.599 2.891-.042 0-.088.006-.129.006a170.88 170.88 0 0 0-.191-1.235c-.104 0-.202 0-.315.004v2.915c-.129 0-.264 0-.394.007-.19-1.024-.392-2.045-.582-3.073h-.215v2.152h-.428V9.873h-.288c-.22 1.132-.431 2.257-.646 3.384-.048.006-.099.006-.147.01-.078-.206-.153-.411-.232-.613-.097 0-.184.003-.273.003v3.503c-.098 0-.195 0-.294.004-.206-1.472-.418-2.945-.623-4.427h-.28v2.583h-.425V9.407c-.228 0-.448-.006-.677-.006v3.869l-.577-.01v-1.82c-.114-.003-.225-.003-.332-.007v2.573c-.104 0-.202.004-.299.004-.194-1.214-.393-2.429-.584-3.644-.106 0-.217-.003-.328-.003v3.485h-.426v-4.43c-.108-.004-.218-.004-.319-.004-.114.924-.221 1.851-.333 2.775l-.596-.01v-2.114h-.339v4.698c-.226.002-.443.006-.666.006v-4.597h-.808v3.996c-.178.002-.349.002-.524.01-.034-.178-.055-.359-.096-.537-.013-.08.014-.178-.095-.223-.504-.174-.798-.359-1.033-.626-.052.305-.106.605-.157.914-.065-.006-.127-.006-.188-.006l-.453-2.604c-.168 0-.334.004-.499.007v2.761c-.113.003-.217.006-.329.006-.052-.208-.092-.417-.14-.629-.093-.003-.185-.003-.27-.007-.223.414-.441.842-.686 1.311a33.332 33.332 0 0 0-.311-.356c-.096.092-.267.182-.272.266-.035.411-.021.814-.327 1.222v-4.102a8.995 8.995 0 0 1-.456-.018c-.151.394-.374.783-.43 1.174-.181 1.163-.28 2.33-.437 3.5-.016.105-.205.208-.323.317-.149-.116-.444-.229-.444-.339-.037-1.498-.023-2.989-.023-4.484h-.793v3.225h-.677v-3.243c-.183 0-.367.003-.552.003v2.611c-.093 0-.186.002-.281.006-.068-.25-.14-.5-.212-.749-.068-.004-.133-.004-.198-.004a24.86 24.86 0 0 1-.205.722c-.062 0-.126.004-.196.004-.21-1.119-.43-2.238-.645-3.36h-.298v3.083h-.621v-2.809c-.146.006-.287.014-.427.023-.184.969-.369 1.94-.55 2.905-.134.004-.264.01-.397.015-.14-.535-.283-1.068-.424-1.602-.141-.541-.281-1.081-.72-1.619-.054.315-.112.633-.17.952-.075 0-.144.003-.217.003-.219-.458-.439-.917-.652-1.372-.105-.007-.206-.017-.308-.024a370.27 370.27 0 0 0-.993 2.518c-.313-1.327-.772-2.74-.947-4.156-.166-1.297-.037-2.604-.037-3.9-.188 0-.38-.004-.575-.004v8.128c-.255 0-.513 0-.776-.004V6.83c-.201 0-.407 0-.613-.003v3.174h-.427V4.032h-.417v3.226c-.147 0-.298.007-.438.007V5.869c-.13 0-.257 0-.38.003v5.662h-.369V2.968h-.427v5.22h-.436v-2.47c-.126 0-.249.004-.375.004v3.042c-.199.003-.404.003-.606.007V2.798h-.482c-.194 1.54-.393 3.075-.596 4.611h-.362V3.718h-.341v3.671c-.101.003-.203.013-.306.02-.103-.211-.198-.423-.408-.852-.118.425-.181.64-.241.849h-.216c-.113-.824-.222-1.639-.335-2.457l-.793.003V8.92c-.174 0-.349.003-.521.003V5.252c-.208 0-.42-.006-.629-.01v2.474c-.288.003-.574.003-.858.003-.287-2.042-.564-4.071-.849-6.104-.031-.006-.064-.006-.095-.006v6.544c-.133 0-.267 0-.4.003v-2.75c-.113-.003-.227-.007-.339-.007-.079.254-.164.507-.247.767h-.229V4.174c-.171-.009-.346-.02-.517-.023-.356.828-.719 1.658-1.153 2.654V2.68c-.198-.007-.4-.007-.602-.007v7.044c-.273-.007-.54-.007-.811-.01V3.741h-.585v4.895h-.435V5.711h-.376v3.045h-.369V2.519c-.147 0-.291-.003-.435-.003v5.189c-.14.004-.288.004-.435.004V4.948h-.428v2.614h-.625V3.381l-.517.014a1579.34 1579.34 0 0 0-.609 4.14h-.208V3.121h-.438v5.056h-.428V5.105h-.376v3.041c-.126 0-.252 0-.376.004V4.194h-.459c0 .26.027.517-.003.77a671.88 671.88 0 0 1-1.187 8.581V4.182h-.182c-.284 1.224-.561 2.459-.842 3.684-.263-.003-.53-.003-.79-.01V2.218h-.561v4.72c-.106 0-.209.003-.319.01-.191-.448-.37-.896-.575-1.344-.062-.136-.185-.27-.28-.403-.24.093-.485.188-.722.287-.239.096-.481.188-.718.291-.096-.136-.278-.267-.28-.403-.028-.705-.014-1.413-.38-2.121v5.508c-.1.003-.195.007-.291.013-.237-.766-.472-1.529-.705-2.296-.089.004-.188.004-.274.008v6.914h-.599V4.791c-.252 0-.516 0-.779.004v9.976c-.263.002-.523.002-.777.002V5.287l-.609-.002v2.264h-.39V4.022a15.46 15.46 0 0 0-.476-.013c-.358.975-.707 1.953-1.064 2.928-.043 0-.078 0-.122.003V2.336h-.609v6.031c-.273-.007-.547-.01-.817-.013V3.256h-.574v4.273c-.124 0-.253.007-.374.007V6.055h-.438v3.346h-.424V2.948h-.427V7.72h-.372V6.057c-.134 0-.254 0-.378-.003V8.47h-.611V2.531c-.281 0-.562-.003-.839-.003v4.567h-.639v-3.38h-.353v2.733c-.126 0-.253.007-.382.01V3.896h-.424v3.048c-.15-.003-.297-.003-.451-.003 0-.541.044-1.088-.021-1.628-.021-.198-.288-.384-.441-.578-.117.182-.318.36-.328.544-.157 2.139-.288 4.277-.428 6.421-.004.045-.079.093-.575.144V5.109c-.212.003-.42.007-.633.007v3.226c-.13 0-.254.007-.38.007a2663.07 2663.07 0 0 1-1.119-6.473h-.078v6.729h-.363V5.129c-.147-.007-.291-.007-.431-.007v1.351h-.42V3.566h-.236c-.189.458-.37.917-.575 1.375-.212.458-.434.92-.828 1.382V2.498h-.414v6.453h-.373c-.374-1.885-.746-3.771-1.126-5.659a.652.652 0 0 0-.088-.007v4.738h-.431V5.098h-.38v4.276h-.369V2.519h-.434v5.809c-.148.003-.291.003-.428.003V5.098h-.376v2.89c-.202 0-.4.004-.599.007V3.421l-.537.01a803.694 803.694 0 0 0-.646 3.982c-.088-.004-.179-.004-.271-.004V3.137h-.343v4.584c-.116.003-.228.003-.349.007-.075-.253-.15-.513-.228-.763h-.281v1.193h-.41V4.029h-.254c-.41 1.947-.813 3.893-1.221 5.839-.061.004-.113.004-.167.01V4.336h-.411c0 .588.031 1.166-.01 1.749-.01.226-.11.448-.267.663-.102.147-.362.277-.561.418-.12-.153-.339-.297-.352-.456-.199-1.44-.363-2.88-.749-4.331v5.316h-.281l-1.734-5.24c-.555 3.821 1.009 7.817-2.084 11.706v-2.145l-.318-.003c-.064.256-.129.516-.198.773-.085-.004-.167-.004-.252-.004-.216-2.777-.431-5.552-.651-8.323-.215.002-.43.006-.65.013v13.243h-.564V4.653c-.206 0-.41-.007-.609-.007v1.851h-.38V2.532h-.373v7.311h-.431V4.657h-.426V7.11h-.434V2.338h-.366v5.97c-.154.003-.312.003-.473.007-.355-1.629-.711-3.26-1.07-4.889-.034-.004-.059-.007-.092-.007v3.694c-.062 0-.12-.003-.185-.003-.408-1.495-.818-2.98-1.225-4.471h-.188v5.043c-.123.002-.25.002-.373.006V5.43h-.431v2.744c-.144-.003-.288-.003-.432-.003V1.407h-.417c0 1.526.007 3.065-.031 4.591 0 .041.551.489-.523.198-.082.062-.236.134-.243.202-.03.273-.01.551-.362.828V3.894h-.595v11.474h-1.016V4.678c-.277-.007-.551-.007-.828-.007v2.877h-.374V4.174c-.116 0-.222-.006-.332-.006a23.84 23.84 0 0 0-.253.609h-.263v-2.43h-.418v3.062h-.26a982.594 982.594 0 0 0-.574-4.529h-.804v5.269h-.338v-4.55c-.133 0-.274 0-.411-.003v2.261h-.465V.881h-.408v6.343c-.105.003-.218.003-.331.003V1.446c-.138 0-.278 0-.415-.004v2.874h-.461V.881h-.407v8.843h-1.214V.881h-.404v4.495h-.215a464.63 464.63 0 0 1-.588-4.495h-.811v4.201h-.411V.881h-.4v3.585c-.14 0-.271 0-.407.006V.881h-.404v4.96c-.109 0-.229.007-.339.007V1.442c-.144 0-.277 0-.417-.003v3.496h-.452V.881h-.411c0 1.229.024 2.457-.03 3.688-.003.199-.37.397-.575.595-.206-.198-.571-.396-.578-.595-.054-1.231-.027-2.459-.027-3.688h-.407V3.86c-.11 0-.223.007-.339.01v-.889c-.143-.003-.287-.003-.423-.003v3.646h-.398V1.277h-.208c-.373 1.064-.739 2.128-1.112 3.195h-.349V.881h-.411v8.525c-.222.006-.444.01-.674.01-.078-.158-.161-.304-.236-.458h-.243c-.564 2.247-1.125 4.501-1.622 6.493v-1.554c-.103 0-.202-.003-.308-.007-.236.658-.465 1.311-.698 1.964h-.253V14.01h-.396v1.7c-.069 0-.134-.002-.196-.007-.205-.304-.414-.612-.605-.917-.096-.15-.164-.309-.244-.462-.198.179-.407.355-.582.538-.088.083-.112.171-.239.376-.585-1.468-1.115-2.812-1.649-4.153-.243.006-.482.013-.721.016v4.304h-.545c-.058-.414-.113-.824-.174-1.241h-.3c-.195.813-.39 1.638-.589 2.456-.116.01-.24.014-.359.021a6621.91 6621.91 0 0 1-2.272-5.819v3.965c-.144 0-.274.003-.417.003-.195-.657-.393-1.321-.639-2.162-.106.312-.154.455-.195.602-.076.308-.612.366-1.348.318-.417-.027-.968.215-1.496.349V7.093h-.39v3.667c0 .202-.014.178-.53.212-.127.01-.264.171-.264.263-.027.965-.017 1.94-.017 2.904-.199 0-.394.004-.592.01v-2.022l-.466.014c-.222.616-.438 1.229-.66 1.847h-.441V6.004a35.976 35.976 0 0 0-.872-.014c-.472 1.228-.124 2.477-.185 3.718-.072 1.287-.021 2.562-.021 3.846v3.824c-.178.003-.359.003-.53.003V5.592c-.206 0-.411-.007-.61-.01V6.77h-.434V4.033c-.144 0-.288.003-.427.003v7.372h-.425V4.953c-.126 0-.25-.004-.369-.004v1.505h-.383V2.506h-.424v6.288h-.41V6.18c-.11 0-.229 0-.343-.006-.058.26-.119.513-.177.772-.113 0-.23-.007-.343-.007V3.251h-.346v4.581h-.191c-.387-1.725-.777-3.442-1.167-5.169h-.256v5.659c-.147.003-.287.003-.428.003V5.246h-.376v2.887h-.376V2.054c-.144-.003-.281-.003-.425-.003v5.196h-.431V5.715h-.435v1.851h-.369V3.293h-.613v11.652h-.828V4.484c-.15 0-.301 0-.458-.003-.201.869-.41 1.731-.618 2.593-.076 0-.147 0-.223.01-.113-.821-.219-1.628-.333-2.442-.157 0-.321.003-.482.01l-.635 2.887c-.972-1.758-.507-3.561-1.246-5.347v5.957h-.394c-.352-1.167-.701-2.333-1.05-3.494-.141 0-.277.004-.424.004v4.902h-.418c0-1.116.007-2.231-.044-3.342 0-.01.739-.503-.469-.208-.099-.093-.28-.178-.28-.264-.021-.971-.01-1.939-.01-2.912-.191-.002-.38-.002-.568-.002v6.571c-.273-.006-.544-.006-.814-.014V3.442h-.585v5.179h-.246c-.318-2.042-.64-4.081-.965-6.124-.157 0-.3.004-.462.004v6.144h-.414V4.796c-.13 0-.25.003-.376.003v2.587h-.376V3.732h-.432v5.214h-.431V5.104h-.369v1.813h-.38V2.658h-.376v5.528c-.192.017-.379.037-.575.055-.24-.273-.67-.544-.688-.817-.075-1.276-.034-2.556-.38-3.835v3.664l-.393.003c-.045-.359-.089-.712-.141-1.074h-.335v1.382h-.42V3.565c-.117.006-.236.006-.349.006v3.815c-.124.003-.24.003-.363.003V6.352c-.133-.003-.27-.006-.407-.006-.044.294-.085.588-.136.885-.103-.003-.206-.003-.305-.003v-5.34h-.448c0 .23.01.469 0 .701-.134 3.011-.195 6.025-.451 9.028-.072.893-.701 1.772-1.369 2.695-.195-.927-.482-1.85-.585-2.774-.1-1.002-.021-1.998-.021-3V5.561c-.192-.003-.387-.003-.582-.003v10.287h-.783V5.593h-.606v11.176h-.43V4.796c-.14-.003-.281-.003-.428-.003v4.002h-.564V1.559c-.239-.003-.472-.006-.708-.006-.832 2.299-.014 4.628-.725 6.93V4.512c-.126 0-.254-.003-.376-.003v1.656h-.435V3.253c-.144.007-.284.007-.428.007v8.302h-.373V4.831a11.28 11.28 0 0 0-.376-.014v1.502c-.137 0-.287-.007-.428-.007V2.035c-.202 0-.407-.003-.602-.003v8.888h-.783V3.144c-.202 0-.407 0-.606-.007v4.561c-.117 0-.219.003-.332.003-.052-.13-.12-.253-.141-.38-.288-1.707-.568-3.411-1.177-5.118v5.816h-.43V5.094h-.38v2.429c-.127 0-.247.003-.373.003V1.437h-.421V6.64c-.124 0-.247.004-.37.004-.058-.411-.113-.822-.168-1.239-.109.004-.222.004-.331.004v1.704c-.12 0-.243 0-.367-.003V2.529c-.198 0-.4 0-.601-.003v12.421h-.829V4.185c-.14-.003-.284-.003-.421-.003a500.15 500.15 0 0 0-1.015 3.068c-.131 0-.257-.003-.387-.007V4.024h-.288a482.355 482.355 0 0 0-.656 3.219h-.466V1.421h-.835v6.767c-.099 0-.197-.011-.305-.011a780.777 780.777 0 0 0-1.104-3.855c-.126.007-.257.007-.383.007v9.035c-.106.003-.223.003-.332.003V5.27c-.123 0-.247-.003-.376-.007-.069.244-.137.489-.202.736h-.271V2.051h-.667v7.365h-.814V3.111h-.582v5.234h-.4V4.497a4.436 4.436 0 0 0-.308-.011c-.072.154-.137.305-.208.462-.096 0-.192-.007-.292-.01V1.733h-.406v6.605h-.432V4.489h-.376v2.128h-.37V3.12h-.438v5.676h-.424V4.794h-.374v1.663h-.383V2.352h-.601v12.705c-.277.003-.559.003-.835.003V3.254h-.602v3.507c-.131 0-.25.006-.38.006V5.119h-.431v1.82h-.431V3.251c-.133 0-.277 0-.41.003 0 1.063.065 2.134-.014 3.202-.236 3.15-.524 6.301-.824 9.448-.01.144-.369.288-.568.431-.072-.13-.179-.263-.212-.396-.25-.948-.482-1.892-1.022-2.846-.117.161-.236.321-.353.479-.144 0-.281-.004-.42-.004V8.369h-.572v9.624h-.428v-4.277h-.43v4.923h-.613v-5.374c-.277 0-.557 0-.834-.004v3.842c-.199-.007-.391-.01-.583-.014v-2.914a3.274 3.274 0 0 0-.28-.01c-.079.154-.161.303-.236.461-.085 0-.178 0-.264-.007v-2.124h-.41v4.748c-.1.003-.192.003-.291.003-.205-1.427-.414-2.856-.622-4.284h-.289v4.441l-.414.003c-.198-1.174-.399-2.35-.585-3.523-.051-.01-.096-.01-.134-.017-.068.25-.137.496-.208.742-.09.003-.174.003-.264.003v-1.19c-.14 0-.277.007-.417.007v3.345h-.599V6.825h-.588v8.72c-.085.003-.174.003-.256.003-.568-1.17-1.146-2.347-1.83-3.746v2.829h-.226c-.178-.468-.355-.937-.534-1.403-.119.004-.242.008-.362.014-.075.263-.147.53-.232.835-.452-.739-.858-1.417-1.273-2.097l-.339-.011v2.05l-.728.041c-.25-.466-.702-.931-.729-1.389-.082-1.714-.03-3.435-.03-5.148v-.729c-.206 0-.41-.003-.605-.003v9.229c-.196 0-.394 0-.578-.006v-8.45c-.199-.003-.395-.003-.592-.003v10.273h-.609V6.343c-.14 0-.287 0-.427-.007v1.852h-.605v-6.61h-.773v6.418h-.551V5.082c-.404.068-.664.116-.921.16v-.739h-.399v9.055h-.397V5.571c-.099-.004-.208-.004-.318-.008-.076.315-.147.626-.225.938-.086-.003-.179-.003-.275-.01V2.529c-.195-.003-.394-.003-.588-.003v6.879c-.273 0-.551 0-.824.004V2.813h-.588v5.06c-.055 0-.11-.007-.167-.007-.343-1.793-.681-3.589-1.02-5.385-.147 0-.284.004-.431.007v6.113h-.362V5.125h-.431v1.967h-.427V1.714h-.432v6.151h-.376V4.67c-.123 0-.25 0-.373-.004v1.96h-.431V1.874h-.605v12.589c-.263.003-.523.003-.783.003V3.903h-.568v3.044c-.239.003-.489.007-.735.014-.271-1.437-.541-2.867-.814-4.301-.031 0-.062 0-.096-.002v4.296c-.105 0-.218.007-.328.007-.089-.26-.171-.52-.256-.776-.068 0-.144-.004-.212-.004-.048.356-.1.708-.148 1.064h-.332v-5.99h-.571v5.997c-.199 0-.387.003-.588.01-.216-.719-.424-1.44-.636-2.162-.144.003-.277.003-.421.003v9.216h-.615c0-1.061.057-2.118-.017-3.178-.168-2.525-.391-5.049-.596-7.582-.263 0-.523.004-.783.004v5.354c-.157 0-.318 0-.486.003-.195-1.635-.386-3.268-.591-4.899h-.334v4.581h-.186c-.397-2.234-.801-4.468-1.201-6.706h-.219v6.736h-.421V4.479h-.433v1.55c-.127 0-.247 0-.377-.01v-1.81l-.375-.003v6.106h-.421V4.483c-.144-.004-.291-.004-.435-.004v1.704h-.379V1.752h-.595v12.114h-.842V3.261h-.608v4.15h-.374V4.52c-.12 0-.247-.003-.373-.01v1.649h-.431V2.957h-.446v3.096c0 1.642.107 3.28-.03 4.916-.146 1.895-.502 3.79-.796 5.682-.018.109-.285.209-.667.473-.085-1.838-1.653-3.408-1.434-5.115.359-2.857.099-5.724-.308-8.59 0 .208.007.423 0 .633-.134 3.469-.229 6.941-.42 10.413-.09 1.595-.384 3.185-.722 4.783V4.979a10.068 10.068 0 0 1-.417-.016c-.157.351-.438.7-.445 1.053-.034 2.767-.01 5.532-.03 8.3-.004.27-.188.543-.787.796V4.948c-.138-.003-.281-.014-.417-.017-.14.301-.373.605-.379.906-.042 1.848-.025 3.688-.025 5.536v7.091h-.968V3.44c-.181-.004-.362-.004-.547-.004-.449 3.832.448 7.684-.544 11.512h-.578V3.874h-.766v12.274c-.26 0-.52 0-.783.003V1.752h-.839v11.959c-.273 0-.557.004-.838.004V3.103h-.777v12.124h-.779V2.06h-.835v12.418c-.281 0-.561-.004-.841-.004V3.261h-.777v11.812h-.783V2.37c-.171 0-.342-.003-.51-.006-.048.096-.15.188-.15.277-.141 3.989-.267 7.967-.427 11.953-.014.38-.292.759-.808 1.126V3.756a1.81 1.81 0 0 0-.233-.013c-.052.095-.144.195-.151.29-.14 3.497-.273 6.996-.41 10.493 0 .047.034.105-.007.15-.147.164-.326.325-.496.485-.103-.161-.294-.318-.294-.479-.021-2.77-.014-5.535-.014-8.302V3.407c-.119 0-.243 0-.362.003-.304 5.265-.605 10.53-.914 15.802H32.5V4.659c-.199-.01-.401-.017-.592-.023-.106.242-.301.485-.304.732-.021 2.945 0 5.895-.032 8.837 0 .301-.249.608-.759.889V4.835a7.412 7.412 0 0 0-.376-.021c-.154.353-.428.706-.441 1.058-.051 1.516.025 3.024-.034 4.536-.096 2.6-.256 5.196-.403 7.8 0 .092-.079.184-.592.273V3.268h-.773v11.495h-.821V3.72c-.277 0-.547 0-.828-.003v12.141h-.78V1.903h-.787v11.769c-.277.003-.555.003-.832.011V3.563h-.838v11.682c-.257 0-.52 0-.776.003V2.519c-.264-.007-.527-.007-.784-.007v11.782h-.838V3.408h-.834v11.378h-.78V2.823h-.65c0 .893.031 1.783-.003 2.682-.12 3.162-.246 6.326-.421 9.487-.02.39-.332.777-.759 1.156V2.806h-.318c-.034.164-.105.325-.113.489-.136 3.876-.229 7.759-.424 11.638-.072 1.495-.39 2.983-.749 4.472V3.151l-.493-.003c-.264 5.46-.523 10.923-.783 16.386h-.318V3.719l-.434-.003c-.151.656-.408 1.314-.421 1.97-.048 2.897.048 5.792-.048 8.686-.048 1.622-.366 3.243-.777 4.864 0-2.542.083-5.083-.03-7.621-.106-2.532.517-5.067-.431-7.592h-.586v14.916h-.755V2.97h-.78v14.861c-.281 0-.558.006-.838.006V2.036h-.838v17.981H7.325V.883h-.404v18.983c-.407 0-.807 0-1.218.007V.883h-.404v18.815h-.804v-.787c0-3.448.01-6.907-.038-10.355-.004-.202-.503-.403-.777-.603v11.406l-.417.568-3.243.164v.39l3.267.048.394.547v11.31c.273-.198.773-.404.777-.605.047-3.452.038-6.907.038-10.359v-.752h.308c.171 6.208.332 12.421.496 18.63h.404V20.465h1.218V39.3h.404V20.32h1.016v17.988c.254-.003.517-.003.78-.003V22.486h.78V37.35h.838V21.398c.27.003.541.003.808.003v14.912h.584c.934-2.525.318-5.066.428-7.598.106-2.532.026-5.063.27-7.605.054.096.15.191.15.288.141 4.499.267 8.99.425 13.489.02.564.27 1.136.752 1.697V20.799c.116-.003.236-.003.355-.003.028.182.086.362.093.541.133 4.266.24 8.532.427 12.798.042 1.03.374 2.062.787 3.096V20.94h.36c.298 5.524.595 11.042.889 16.564h.291V24.173c.147 0 .297-.015.441-.017.15.633.406 1.259.424 1.888.058 1.95.018 3.893.018 5.847v5.631h.961V25.58h.838v11.34h.838V26.003h.779v11.824h.784V25.118h.832v11.648h.838V26.617h.783v11.826c.263 0 .523.003.787.003V24.499c.277 0 .555 0 .835.003v12.11l.81-.003V25.543c1.505 1.902.91 3.834 1.01 5.75.096 1.917.021 3.838.021 5.755h.588V21.862c.174 0 .363 0 .54-.004.031.127.076.246.086.37.137 4.084.256 8.173.42 12.261.021.356.301.715.759 1.054V25.277c.144-.015.284-.021.428-.031.137.304.396.605.396.91.032 2.921.01 5.835.032 8.757 0 .271.188.544.287.817l.53-.021V21.08h.315c.304 5.264.608 10.53.917 15.797.12.004.243.011.362.014V26.02c0-.178-.038-.36.014-.541.038-.106.233-.198.349-.308.151.093.383.181.427.28.072.147.021.305.021.462 0 2.175-.065 4.355.024 6.53.058 1.393.355 2.778.752 4.167V24.626c.129-.003.263-.006.393-.006.15.373.332.762.438 1.146.065.25.003.506.01.767.133 3.726.27 7.454.403 11.18.007.099.079.192.585.291V25.25c.264 0 .524 0 .784-.006V37.05h.784V25.898h.838v12.415h.841V25.097h.777v12.11h.78v-10.55h.544c1.061 3.982.256 7.978 1.136 11.963V24.174h.78v12.264h.77V25.425h.832v11.496h.845V21.879c.164-.004.335-.004.509-.01.044.164.113.315.116.472.14 4.087.268 8.169.428 12.257.01.27.283.537.787.783 0-3.196-.007-6.404.01-9.603 0-.178.137-.362.212-.547.197.194.561.39.564.585.034 2.819.007 5.635.041 8.45.007.383.294.763.807 1.125V21.119l.229-.01c.051.075.154.144.157.215.141 3.059.308 6.121.394 9.186.061 2.135.01 4.27.01 6.404h.814V36.2c0-2.89-.133-5.788.055-8.683.093-1.382.804-2.764 1.659-4.167.105.273.277.541.297.821.284 4.352.551 8.707.832 13.058 0 .044.099.088.362.324v-3.407h.435v1.704c.126-.006.25-.006.383-.006v-2.891h.363v4.102h.609V26.501c.281 0 .558-.003.834-.003v12.114h.606v-4.427c.127 0 .25 0 .379-.006v1.648h.428v-5.818h.435v6.147h.366v-1.81a9.19 9.19 0 0 0 .375-.014v1.488h.435v-4.112h.427v6.753h.274c.403-2.258.807-4.516 1.204-6.767.041-.003.079-.003.127-.003v4.577c.126 0 .263.008.39.008.209-1.635.407-3.257.609-4.889h.404v5.358l.396-.003c.356-1.194.941-2.395 1.02-3.592.161-2.377.048-4.749.048-7.129h.554v9.182h.489c.206-.708.414-1.417.626-2.121.181 0 .349.003.531.007v5.958h.571v-5.966c.13 0 .261-.007.393-.007.042.359.089.726.133 1.092l.209.003c.085-.26.164-.517.242-.77.1 0 .189 0 .288.003v4.283h.223l.626-4.304c.266.003.537.003.804.007v3.076l.578-.003V25.859h.783v12.579c.198.004.4.004.602.004v-4.749h.431v2.005c.128 0 .254-.004.38-.004v-3.191l.373-.003v6.089h.431v-5.357h.427v2.011h.38v-3.51h.362v6.09c.185.004.356.004.537.01.339-1.786.677-3.571 1.02-5.351.037-.003.078-.003.112-.003v5.06h.588v-6.606h.824v6.907h.6v-3.975c.119 0 .246-.003.369-.007v.886c.144-.003.29-.003.434-.003v-7.948h.391v9.06c.12.003.236.003.353.003.064-.314.123-.633.215-1.115.199.26.288.362.366.475.113-.086.322-.17.322-.253.027-.886.018-1.775.018-2.658h.605v6.455h.783v-6.588h.599v1.823h.431V22.466h.599v10.287c.195 0 .397 0 .585-.003v-8.419h.591v9.182h.661c0-1.324-.048-2.648.017-3.972.048-.934.233-1.867.407-2.795.035-.154.36-.301.791-.643 0 .791-.026 1.361.024 1.936.01.1.341.195.519.297.093-.109.196-.212.261-.318.345-.554.688-1.112 1.084-1.745.075.294.15.54.216.787.109.003.226.014.342.021.188-.452.373-.899.563-1.351.062-.003.121-.003.179-.003v2.586c.065 0 .12 0 .182-.007l1.697-3.523h.208v8.758h.592v-9.993c.195 0 .393 0 .599-.004v3.388h.349V25.73c.113-.003.222-.007.325-.013.089.26.182.513.346.999.237-1.417.434-2.6.636-3.773h.362V27.4h.332c.209-1.437.42-2.867.623-4.3h.25v4.766h.397V25.7c.103 0 .209 0 .312-.006.069.153.144.307.216.465.082-.003.16-.007.242-.007v-2.918c1.417 1.259.496 2.579 1.44 3.859v-5.371h.616v4.898c.144 0 .288 0 .431.004v-4.311h.374v9.651c.188.003.376.003.561.003V26.76c.181-.003.355-.013.534-.013.092.157.185.314.27.472.103.003.202.01.298.013.352-1.081.694-2.162 1.039-3.243.083-.01.171-.018.261-.024.102.273.276.544.301.818.283 4.043.55 8.087.832 12.134.003.048.089.092.356.335v-3.869c.15 0 .288 0 .431-.003v1.854h.38v-1.663h.373v3.479c.202 0 .403-.003.609-.003V25.28c.28-.007.557-.007.834-.007v12.729h.609V33.88c.119 0 .242-.003.369-.007v1.646c.144-.003.288-.003.438-.003v-3.971h.424v5.688l.372.003v-3.503c.127 0 .253-.007.38-.01v2.097h.43v-3.808h.429v6.599h.396v-3.226c.099-.003.205-.007.308-.013.071.153.154.307.229.461.088 0 .178-.003.277-.003v-3.818h.404v5.217h.581v-6.302c.196 0 .397 0 .589-.003 1.057 2.442.099 4.926.82 7.379v-3.976c.113-.003.213-.01.322-.018.092.264.188.517.281.781.096-.004.181-.008.273-.008v-8.121h.328v9.024c.158.003.326.007.479.007.37-1.27.732-2.548 1.097-3.824.093 0 .179-.008.267-.008v6.729c.281 0 .562 0 .842.003v-5.826h.496c.215 1.077.427 2.155.644 3.233h.249v-3.223c.144-.007.277-.01.421-.014.342 1.026.691 2.052 1.033 3.082h.391V25.402h.769v12.404c.202.003.404.003.603.003v-4.573h.424v1.679c.109 0 .229.006.345.006.065-.413.127-.827.196-1.238.106 0 .219 0 .325.004v5.224h.366v-6.12h.373v2.425h.434v-2.918h.432v5.843h.29c.393-1.824.78-3.657 1.181-5.484.02-.004.044-.004.065-.01v4.55c.226 0 .441 0 .66.002v-7.813c.284 0 .564 0 .845.003v8.915h.599v-4.307h.376v1.501h.376v-6.719h.432v8.286h.423v-2.918h.376v1.655h.38v-3.944h.664v6.9c.269 0 .541 0 .813-.007v-7.204h.576v3.985c.146 0 .287 0 .43-.003v-11.99h.379v11.189h.606V24.462h.835v10.301c1.098-2.915-.226-5.864 1.357-8.754.25.004.497.004.736.004.178 2.839.325 5.675.554 8.514.106 1.307.373 2.621.74 3.92v-5.351c.126 0 .249 0 .362-.006v.872c.151 0 .294.003.438.01v-1.026c.137 0 .277-.003.417-.003v3.801h.417v-3.982c.137 0 .277-.007.415-.007v1.403c.113 0 .222 0 .328.003.075-.37.144-.736.215-1.102.089.003.188.003.277.003v3.66h.421c0-1.238-.048-2.48.027-3.723.021-.303.41-.608.636-.909.195.017.393.031.599.047v5.539h.328v-4.273c.126 0 .253-.003.379-.006v1.809h.432v-3.828h.43v5.231h.377v-3.664c.117 0 .246 0 .369-.003v2.573h.435v-3.829h.414v6.147c.165 0 .321.004.482.004.321-2.032.643-4.075.968-6.104.038-.006.078-.006.116-.006v5.159c.199 0 .39.003.582.003v-5.942c.332 0 .674-.004 1.009-.007.235 2.182.007 4.375.506 6.564v-2.832c.226.027-.496-.64.452-.093.123-.079.338-.15.338-.232.024-1.197.013-2.391.411-3.592v4.916c.136 0 .28.01.417.01.366-1.167.726-2.333 1.088-3.5.102-.003.208-.007.308-.014v5.97c.273 0 .551 0 .821.003v-5.371l.5.003c.205.958.414 1.912.618 2.867.13.002.264.006.391.013v-2.405c.215-.006.431-.01.636-.01.22.873.445 1.738.667 2.607l.417-.003V25.386h.781v11.652h.605v-4.27c.14-.003.284-.003.424-.003v1.848h.434v-1.55c.126 0 .253.007.38.007v5.193h.369V32.16h.428v2.904h.434v-3.078c.121.006.25.006.374.006v5.652c.105 0 .212.007.322.007.393-1.728.786-3.449 1.176-5.172.034-.004.075-.004.112-.007v4.588h.401v-3.685c.116 0 .236-.003.349-.007.062.256.12.517.178.773.112-.003.229-.003.341-.003v-2.617c.117.004.233.004.346.004v6.267c.13 0 .25.007.377.007v-3.945h.431v1.51h.435v-6.45h.42v7.38h.373v-2.741c.124 0 .25-.003.376-.007v1.194c.202 0 .404 0 .605-.007V22.958h.664v5.72c0 .951-.075 1.902.024 2.847.096.93-.444 1.892.349 2.805.209-.007.418-.011.62-.014v-7.995c.171-.011.332-.011.497-.014.232.626.461 1.246.694 1.868.157.003.314.014.468.021.092-.674.185-1.349.28-2.022h.305c0 .94-.003 1.888 0 2.832 0 .13.006.106.452.103.109 0 .342.144.342.216.021 1.304.017 2.604.394 3.896v-6.917c.407.342.5.834 1.659.208.397.141.937.26 1.153.428.202.16.044.383.273.582.206-.667.404-1.324.61-1.985.133 0 .263 0 .403.007v4.607c.174.007.355.015.534.018-.925-2.23.492-4.337 2.141-6.264.157.626.356 1.437.555 2.248h.3c.059-.411.113-.822.174-1.232.154 0 .312.004.469.004v4.286c.267.007.54.021.814.028.219-.654.391-1.314.661-1.96.284-.694.657-1.372.982-2.025.229.215.513.479.793.738.215-.291.468-.571.626-.862.086-.167.014-.338.428-.509v1.689h.394v-1.844h.27c.226.661.445 1.32.67 1.987h.267V24.62c.561 2.247 1.126 4.502 1.72 6.89.229-.284.353-.441.479-.606.216.007.428.011.636.014v8.371h.411v-3.441c.106-.003.212-.003.325-.013.37 1.066.753 2.13 1.129 3.188.034.003.065.003.103.003v-5.32h.383v3.651c.138.002.271.006.397.013.055-.305.103-.602.144-.9h.35v2.819h.407c0-1.204-.025-2.404.027-3.609.007-.171.373-.349.578-.523.206.175.572.353.575.523.051 1.205.03 2.405.03 3.609h.411v-3.893h.346v3.494h.41v-4.42h.452v4.82h.404v-3.435h.407v3.435h.4v-4.042c.141 0 .274-.004.411-.004v4.047h.811c.191-1.453.393-2.908.595-4.365h.208v4.365h.404v-8.689h1.214v8.689h.407v-3.277c.113 0 .229-.007.355-.007v2.884h.41v-5.806h.441v6.206h.408v-2.819h.355v2.266c.137 0 .274.006.414.006V34.16h.445v5.131h.804c.195-1.46.393-2.921.588-4.378h.192v3.044c.117 0 .229.004.339.004v-2.426c.109-.003.212-.007.314-.017.126.216.246.428.373.64.079-.007.158-.007.24-.01V32.8c.1 0 .201 0 .309-.004v2.884c.143.01.293.01.437.014.284-1.002.77-2.001.814-3.007.117-2.576.035-5.159.035-7.745h.558v11.484l.591.003v-3.346h.472c0 .232-.004.462.003.698.003.116.007.096.451.096.117 0 .339.143.339.229.024 1.351.017 2.709.017 4.067v.749h.362v-6.725c.124-.004.247-.004.376-.004v2.7c.141.003.284.003.424.003v-2.275h.432v5.077h.247c.407-1.495.814-2.984 1.225-4.475h.129v3.653c.147 0 .297.004.445.004 0-.75-.123-1.508.034-2.258.171-.873.592-1.734 1.153-2.6v5.969c.141.003.287.003.424.003v-4.772h.379v2.428h.37v-5.168h.438v7.355h.424v-3.999h.373v1.81h.612V22.617c.202 0 .411.003.62.003v13.243c.277 0 .551.007.827.014 0-.914-.041-1.824.024-2.73.068-.938.308-1.875.373-2.809.068-.927.014-1.858.335-2.788.065.257.13.513.191.77.086 0 .178 0 .263-.01v-2.118l.602-.031c.486 1.289 1.269 2.575 1.386 3.872.232 2.402.068 4.813.068 7.219v.883c.639-1.926 1.229-3.712 1.816-5.494.052 0 .113-.007.172-.007v5.357h.315c.182-1.46.349-2.918.547-4.369.013-.154.229-.304.352-.454.188.141.523.27.558.417.185.804.297 1.602.687 2.409v-5.539c.058 0 .11.004.171.004.408 1.95.811 3.894 1.221 5.843.062 0 .127 0 .193.007v-4.126c.122 0 .232 0 .354-.006v1.19c.123.006.254.01.373.014.062-.243.13-.493.198-.739h.274v4.563c.134 0 .276.004.417.004v-4.283h.325c.212 1.328.427 2.655.643 3.985.133.004.277.004.408.007V32.31h.669v2.932h.377v-3.205h.379v5.781h.429v-6.887h.43v4.311h.374v-2.895h.379v4.698c.158.003.318.003.476.003 0-.791-.127-1.581.034-2.361.219-1.101.657-2.199 1.191-3.301v6.456h.355v-3.814c.075 0 .154-.007.226-.007.42.92.841 1.833 1.255 2.75h.157v-2.897l.36-.003v1.341c.15 0 .29-.003.438-.003v-3.51h.424v6.766c.043 0 .086 0 .129-.003.37-2.158.743-4.314 1.119-6.469h.322v3.209c.229 0 .458.007.685.01.424-2.237.023-4.488.591-6.732 0 .237-.014.469 0 .699.133 2.007.263 4.019.417 6.034.007.13.208.256.325.39.154-.144.435-.281.445-.42.054-.585.021-1.17.359-1.762v3.018c.144 0 .288 0 .431.003v-2.587h.431v2.771c.12 0 .236-.003.359-.003v-3.356c.154 0 .315 0 .469-.007.133.736.325 1.472.386 2.204.066.786.018 1.584.018 2.371h.544v-5.956c.202 0 .4-.003.605-.003v2.425h.438v-1.68h.431v4.766h.366v-6.425c.126 0 .25-.003.379-.003v3.332h.428v-1.509h.435v4.296h.572v-5.066c.232-.003.458-.013.694-.017.753.595.26 1.26.345 1.889.089.688.021 1.385.021 2.073V38c.12 0 .24 0 .362.003v-4.584c.062 0 .124 0 .185-.007.353.973.712 1.947 1.064 2.915.137-.003.277-.01.415-.017v-3.507c.116-.003.228-.003.335-.007v2.265c.205 0 .407 0 .609-.006v-9.473h.837v9.962h.835v-8.615h.596v6.921l.286.003c.224-.765.453-1.536.668-2.298h.259v5.518h.424c0-.702-.014-1.41.014-2.114.002-.134.185-.267.277-.4.24.095.478.194.718.287.24.096.479.195.725.288.096-.134.222-.267.28-.4.195-.445.359-.88.777-1.324v4.728h.557v-5.655c.301-.007.602-.017.903-.017.288 1.231.571 2.456.852 3.691h.12v-9.343c.147-.003.294-.006.438-.006v1.58c0 .947-.112 1.895.028 2.839a29.669 29.669 0 0 0 1.132 4.896v-3.951h.431v3.061h.431v-3.082h.373v5.042c.127 0 .25 0 .38.002V32.79c.106 0 .205-.007.318-.007.198 1.389.404 2.777.612 4.16.171.003.343.01.517.01v-4.181h.622v2.617c.126 0 .253 0 .376-.004v-2.733h.38v5.166h.424v-6.273h.438v3.075h.369v-2.884c.13 0 .253-.004.38-.004v4.862h.585v-5.942c.28 0 .561-.006.841-.011.585 2.334.055 4.694.63 7.031v-3.979h.168c.311.814.629 1.628.937 2.449.161-.007.312-.01.465-.01v-1.96l.359-.01c.072.243.144.485.212.728h.26v-2.706h.42v6.572h.212c.281-2.046.562-4.092.846-6.137h.793v2.48c.185-.007.366-.01.562-.014v-3.681c.182-.003.353-.003.534-.01.161 1.331.318 2.659.482 3.986l.445.01c.11-.814.212-1.632.347-2.689.211.438.313.65.529 1.105.116-.455.17-.67.219-.882.116.003.229.006.342.006v3.688h.4v-3.694h.362c.203 1.539.401 3.075.596 4.615h.425v-5.983h.608v3.061h.431v-2.466h.377v5.192c.13.004.249.004.376.004v-8.553c.138 0 .276 0 .417-.003v5.672c.146 0 .292 0 .441.004v-1.393h.432v3.23h.369v-5.963c.123 0 .249 0 .376-.003v3.192h.603v-6.26c.276 0 .554-.004.839-.004v8.119c.211 0 .424-.004.629-.004 0-1.375-.133-2.758.037-4.129.171-1.341.657-2.678.973-3.896.279.759.615 1.639.947 2.515.099-.003.192-.01.29-.014.233-.472.465-.938.694-1.41.072 0 .147.004.223.007l.123.9c.106.002.22.006.325.013.287-1.07.572-2.141.862-3.208h.355c.199.982.391 1.964.596 2.946l.416.01v-2.799h.617v3.079h.305c.216-1.129.432-2.262.646-3.394.05-.003.093-.003.135-.007.077.26.168.521.249.78.062 0 .116.003.182.01.068-.256.141-.505.209-.755h.242v2.604c.188 0 .362.003.551.006.103-.526.263-1.056.312-1.583.055-.554.014-1.112.383-1.666v3.199h.396c.155-1.375.285-2.764.473-4.146.023-.216.291-.436.447-.647.118.206.288.415.328.623.23 1.451.432 2.898.648 4.349.18 0 .357-.004.546-.01v-4.126h.429c0 .42-.014.834.021 1.249.006.096.177.185.272.277.097-.109.188-.215.314-.356.24.469.462.89.682 1.307.085 0 .177-.003.267-.003.051-.218.096-.424.143-.636l.329.01v2.765l.514.003c.14-.862.279-1.731.421-2.6.063 0 .132-.007.194-.01.049.297.099.602.143.896h.345c0-.199-.005-.39 0-.585.005-.116.009-.11.437-.069.093.01.345-.062.353-.103.036-.195.017-.39.017-.592.191 0 .37-.004.562-.004v3.99h.811v-4.595h.615v4.731c.13 0 .264.004.387.004v-2.148c.199 0 .395-.004.583-.004v2.73c.207 0 .413.003.618.003V26.5c.14 0 .273-.003.417-.003v3.51h.428c.198-1.215.4-2.433.602-3.658.062 0 .117-.004.179-.006v2.579h.393v-1.84l.634-.014v3.869h.619v-4.888c.127 0 .249-.003.375-.007v2.569h.384c.206-1.467.418-2.938.623-4.403.058 0 .113 0 .17-.003v3.489c.106 0 .218.007.319.014.123-.212.239-.421.438-.774.243 1.276.454 2.405.674 3.531h.288v-4.304h.37v2.118c.088.003.181.003.272.003.19-1.009.384-2.025.577-3.041.131.002.268.002.398.007v2.915c.113.002.208.002.315.002.064-.414.129-.824.191-1.238.044 0 .096.006.146.006.183.969.374 1.947.562 2.916h.406v-4h.352v2.892c.135.002.262.006.398.01.205-1.068.42-2.139.636-3.2h.232v4h.363v-1.819c.09 0 .181-.004.27-.011.16.506.316 1.012.479 1.512.16 0 .321-.004.479-.007V25.1l.367-.003v3.072c.463-.317.714-.492.963-.657.109.007.22.021.328.031v2.627h.343v-2.583h.343v2.559c.212.007.424.024.633.037.099-.328.231-.646.271-.968.051-.383.021-.767.021-1.153v-1.135h.399v2.306h.359v-1.816c.165 0 .329-.004.496-.011.175 1.125.347 2.248.518 3.37.078 0 .167 0 .242.003v-3.538h.373v3.196h.387c.202-1.732.407-3.462.615-5.2h.212v3.667l.343.002v-1.655c.215 0 .424-.007.636-.007v3.379h.674v-5.689h.363v3.507c.106.006.211.006.317.01.229-.821.456-1.636.68-2.453.07.003.142.003.21.006v2.583c.119 0 .239 0 .362.007v-1.013c.117 0 .223-.003.344-.003.21 1.07.426 2.138.639 3.198h.333v-3.383c.121.004.241.004.361.004v1.963c.1.006.194.01.297.01.227-.968.453-1.943.675-2.911.067.006.142.006.206.01v2.747c.087.003.17.01.252.014.127-.151.253-.298.377-.452.089 0 .164 0 .241.007 0 .564-.02 1.129.025 1.697.007.119.267.239.41.359.123-.13.356-.253.356-.384.03-1.122.021-2.244.355-3.362v1.839c.092.007.182.01.272.015.243-.315.488-.626.73-.945.089 0 .188.003.279.007v2.148l.398-.003v-2.159c.139.004.273.004.413.004 0 .814-.014 1.625.013 2.438.004.134.206.263.312.401.164-.144.455-.277.462-.421.041-.854.021-1.71.377-2.565v1.977c.102.003.219.003.328.014.064-.246.143-.492.257-.893.274.561.476.968.669 1.386.148-.011.296-.017.438-.02v-1.051c.103-.004.196-.004.299-.004v2.275c.187.003.379.003.57.007V28c.268-.007.534-.014.802-.017.37.94.738 1.882 1.111 2.826l.417-.021v-2.004h.381v2.761c.143 0 .279 0 .423.006.141-.821.265-1.642.438-2.463.027-.154.245-.3.384-.447.27.164.718.318.786.492.223.698.335 1.396.831 2.09v-2.764h.413v3.849c.093-.003.199-.003.292-.003.212-1.334.424-2.675.63-4.009.143-.017.283-.024.427-.042.227.613.506 1.232.65 1.844.153.633.167 1.276.238 1.909.206 0 .412 0 .612-.003v-3.376h.359v1.54c.169.013.336.021.504.027.165-.271.324-.534.493-.801a6 6 0 0 1 .354-.021c.346.996.691 1.988 1.034 2.983.144-.01.283-.018.426-.03V30.15c.114 0 .224-.003.34-.007.038.216.059.431.127.636.009.042.239.062.362.089.181-.643.328-.459.418.003.047.226.006.448.287.685.077-.265.15-.527.229-.788.154 0 .309-.003.466-.003v2.478c.219-.004.434-.004.646-.004v-1.392h.242c.224.667.442 1.327.665 1.995.096 0 .194-.003.297-.003v-1.686c.137 0 .281 0 .415.006v5.074h.371v-3.66c.05 0 .1 0 .154-.004.408.92.808 1.838 1.214 2.757.09-.007.176-.01.262-.01v-2.74l.358-.01V34.9h.429v-2.422h.43v6.292h.407v-5.375c.1-.003.21-.003.312-.007.079.315.154.626.23.938.096-.003.184-.003.279-.003v-1.978h.349v3.49h.603V29.27c.277 0 .555.003.834.003v7.194c.164 0 .332 0 .496-.004.154-.865.31-1.73.463-2.603.154.003.303.003.454.003v1.354c.145.007.281.007.418.007v-1.529h.424v1.697h.414c0-.582-.018-1.167.014-1.751.007-.106.195-.212.307-.318.159.109.457.226.459.339.038 1.098.024 2.199.024 3.301v.726h.609v-5.693c.191 0 .387 0 .582.004v1.846c.107 0 .232.007.342.007.057-.26.115-.517.181-.77.114 0 .223 0 .343.003v3.989h.345v-6.732h.432c0 .756-.126 1.52.03 2.275.257 1.283.694 2.559 1.185 3.845v-3.801c0-.181-.101-.373.038-.537.098-.11.525-.174.807-.263.123.105.35.211.35.311.025 1.594.013 3.177.025 4.768 0 .147.053.298.395.441v-4.3h.242c.186 1.075.37 2.152.552 3.233.198 0 .39.003.585.003V32.61h.605v2.275c.127 0 .249 0 .379.003V31.87h.428v6.121h.432v-6.147h.373v2.883c.129.004.249.008.379.008v-2.549h.427v4.571h.192c.366-1.947.736-3.89 1.108-5.829h.374v6.455h.352v-3.664c.075 0 .153-.007.227-.013.43.561.852 1.122 1.337 1.754.414-.992.809-1.913 1.187-2.836.037-.003.072-.003.11-.003v5.809c.268.003.525.003.786.01v-5.535c.247 0 .496 0 .746.003.216.879.438 1.762.657 2.644.075-.002.154-.002.231-.006V28.04h.22c.264 2.436.523 4.878.79 7.321.213 0 .421 0 .631-.003 0-.91 0-1.824.002-2.734 0-.157.021-.312.035-.458 1.635.267.718-.303.722-.386.065-2.022.034-4.05.067-6.069.004-.311.212-.616.332-.923l.623.01v9.935c.219.003.431.006.644.006v-1.956c0-.588-.072-1.184.013-1.769.318-2.114.691-4.229 1.041-6.366.051.069.156.141.156.209.275 4.813.548 9.633.815 14.446h.404c.286-2.117.57-4.238.854-6.363h.333v3.828h.604V27.1h.78v11.016h.604v-4.407h.436v2.132h.427v-3.695h.371v2.895l.375.01v-1.492c.144 0 .291 0 .433-.003v1.817h.43v-3.531h.425v6.462c.065 0 .138 0 .202-.007.382-1.936.763-3.865 1.139-5.805.064 0 .13 0 .202-.003v3.502c.211.004.43.007.646.014.301-1.385.599-2.764.896-4.146.037 0 .078 0 .123-.004v4.3c.209.003.41.003.62.003.287-3.023.573-6.048.867-9.08h.353v8.762c.195 0 .384 0 .579.003v-2.151l.605-.014c.283 1.437.57 2.877.854 4.321h.195v-6.155h.365v2.125c.125 0 .254.003.381.01V32.48h.427v4.434h.26c.185-1.126.366-2.251.562-3.376.255 0 .509 0 .766.006v2.73h.366v-3.811c.104-.007.212-.01.311-.021.127.165.25.329.366.486.1 0 .188-.003.277-.003V31.38h.343v6.12h.362v-4.407h.427v2.443h.439v-3.237c.122 0 .253 0 .369.004v5.039c.129 0 .249 0 .384.004v-4.4c.139 0 .283-.007.423-.007v2.59h.435v-3.387h.37v5.815c.132 0 .266 0 .399.007.354-2.036.712-4.061 1.071-6.089.047-.003.099-.003.146-.003v4.574c.191 0 .384 0 .574.003v-5.512c.319-.003.637-.007.955-.007.336 2.24-.007 4.5.49 6.746v-3.684c.108-.004.22-.007.331-.007.078.257.156.517.232.776.1-.003.198-.006.298-.006V31.84h.332v2.891c.219.007.43.02.649.027.306-.712.613-1.427.921-2.139l.308-.01v5.518h.55V33.07c.15-.006.315-.013.469-.021.206.417.418.832.623 1.249.072 0 .14 0 .205-.003V23.389h.356v11.953h.599v-7.656c.283 0 .561.003.833.003v5.231c.142-.007.278-.007.416-.007.226-1.834.458-3.677.684-5.518.233 0 .469.003.704.003l1.468 9.476c.041.004.082.004.12.011v-4.252h.432v2.894h.431V32.14h.376v5.658h.349v-3.482c.123 0 .254-.007.378-.01.071.247.139.492.207.736.087.003.179.003.264.006v-2.104h.421v3.969h.444c0-.397-.045-.784.011-1.177.205-1.45.452-2.897.677-4.345h.518v6.305h.376v-4.119c.119 0 .25-.007.369-.007v1.94h.438v-5.5h.413v5.377h.432v-1.399h.376v1.355c.127 0 .25.003.37.003v-2.863h.383v5.518c1.424-.954.68-1.967.894-2.952.208-1.013.374-2.011.756-3.027v3.513c.149 0 .308.003.464.003.189-1.221.367-2.446.555-3.667.121-.007.236-.013.353-.021v4.283c.202.007.396.007.595.007.369-1.478.739-2.962 1.168-4.656.243 1.635.457 3.062.673 4.485.066 0 .137 0 .209.003v-2.443c.25-.003.503-.003.756-.014l.773 4.909.123.003v-6.575c.138 0 .27-.003.403-.003v2.152c.113 0 .23.003.34.006.067-.26.143-.517.219-.773.098.004.202.004.304.004v3.995h.232c.383-1.488.767-2.98 1.154-4.468h.21v3.814h.604V27.54h.839v10.14h.604v-4.301h.377v2.43h.369v-3.335h.438v5.207h.425v-4.769h.377v2.429c.125.003.252.003.375.003v-3.177h.41v5.983c.182.003.376.003.555.006.312-2.155.629-4.307.937-6.466h.183v5.536h.353v-2.897c.106-.007.208-.01.321-.014.088.257.178.509.276.77.086-.003.174-.003.271-.003v-3.664h.345v5.788c.116.003.247.003.374.003v-2.912c.112-.003.215-.013.324-.017.113.172.219.332.332.496.087 0 .168-.007.251-.007v-7.04c.098 0 .193 0 .293-.004v7.492c.243.007.482.014.719.024.334-1.235.864-2.467.95-3.706.161-2.09.049-4.187.449-6.287v2.459c0 1.536-.038 3.075.038 4.612.012.318.456.629 1.183.899V26.02c.075-.003.154-.01.233-.01.233.517.459 1.03.697 1.56.256-.181.514-.353.77-.53.147.01.29.016.441.026.227 1.855.395 3.705.702 5.559.318 1.929.778 3.859 1.146 5.686V33.23h.437v1.848h.429v-2.162c.126 0 .249 0 .379.003v4.424h.37v-4.414l.434-.002v2.452h.429v-2.306h.375v5.498c.145 0 .288 0 .437.003 0-.198-.033-.389.005-.581.328-1.742.668-3.479 1.198-5.228v4.154h.605V26.774h.783v11.348h.602v-3.975h.431v1.542c.144-.003.287-.003.432-.003v-4.608h.372v6.117c.124 0 .24 0 .367.002v-2.585c.137 0 .288-.004.428-.004v1.221h.44V31.68c.199 0 .395.003.586.003v6.739c.273.007.546.007.82.007v-6.281h.616c0 1.043-.01 2.087.008 3.134.002.13.118.263.188.4.338-.126.957-.253.971-.387.09-.886.049-1.775.388-2.672V36c1.844-3.462 1.043-6.968 1.833-10.455V36.42c.188 0 .369.007.548.007v-3.055c2.253 1.786.752 3.705 1.695 5.539v-6.726c.121-.003.244-.003.366-.006v2.408H485v-1.666h.429v4.769h.394v-3.083c.105 0 .205-.003.319-.007.064.154.128.305.201.458h.29v-1.826h.407v3.834h.407v-4.454c.112 0 .216-.003.326-.003.07.311.139.623.211.937.092-.01.178-.01.273-.01v-1.2h.36v6.085h.416v-4.426h.438v1.689h.428v-4.457h.37v6.417c.126.007.246.007.376.007v-3.804h.434v1.837c.145-.003.289-.003.432-.003v-3.54h.342v5.972c.226.007.446.011.662.014.271-2.045.547-4.095.816-6.131h.174v5.189c.199.008.395.008.583.008v-6.121c.273 0 .555 0 .828.004v6.127c.181 0 .365 0 .543.003.037-.185.075-.366.096-.547.4-3.982.804-7.954 1.225-11.936.017-.151.247-.301.777-.428v10.759h.575v-8.87c.201-.008.406-.01.604-.01v2.891c.15-.007.287-.007.435-.007v-6.137h.424c0 1.041-.054 2.077.015 3.117.247 4.119.529 8.241.807 12.367.004.068.1.133.117.154.379-.729.786-1.499 1.19-2.265.108 0 .218 0 .328.007v2.764c.197 0 .39-.004.581-.004V21.235h1.012V39.29h.408v-4.042h.343v2.719h.413v-2.726h.451v4.05h.411v-3.893h.346v3.336h.41v-4.57h.455v5.127h.403v-2.049c.138 0 .268-.003.404-.003v2.052h.399v-4.504c.138 0 .27-.004.408-.004v4.509h.403v-2.825c.116-.007.226-.007.34-.01v.886c.143.007.283.007.426.009v-3.345c.147.002.302.002.453.002v5.282h.403v-3.435l.358-.003v2.894c.144 0 .276 0 .415-.003V27.089h.437v12.202h.408V36.63h.349v1.956c.141 0 .277.004.417.004v-3.976h.445v4.676h.81v-4.542c.258 0 .52.003.783.003v3.26c.191.003.384.008.575.018v-3.565c.195-.003.394-.003.592-.003.202 1.211.414 2.432.621 3.643.091.01.181.015.278.018.326-1.332.65-2.655.974-3.985h.632v5.155h.398V35.25c.104 0 .22-.004.333-.007v1.974c.134 0 .26.003.39.007.052-.304.099-.605.151-.903.11 0 .225.004.342.004v2.969h.404v-4.659h.339v3.178h.413v-2.569h.462v4.05h.403c.383-1.443.763-2.895 1.214-4.587v4.587h.404V27.533h1.212v11.761h.407v-3.735c.112 0 .232-.004.352-.004v2.727h.411v-4.577h.447v5.59h.403v-3.428c.12 0 .236-.007.357-.007v2.734c.133 0 .273-.004.405-.004v-4.58h.454v5.285h.812c.198-1.663.397-3.321.603-4.98h.202v4.98h.403V26.33h.372v11.351h.599V24.798c.258 0 .518 0 .78.003v12.38h.566V26.638a9.6 9.6 0 0 1 .347-.017c.1.208.201.421.422.878.118-.458.166-.674.222-.889h.658c.16 3.058.307 6.116.494 9.171.065 1.085.241 2.166.37 3.247h.602v-8.415h1.044v8.682h.399V25.537c.407 0 .812 0 1.219.006v13.752h.4V22.31h1.211v16.985h.411V23.384c.403 0 .806 0 1.21-.003v15.914h.403V24.62c.408-.007.808-.007 1.216-.007v14.686h.404v-15.76h1.214v15.76h.403V24.155h1.214v15.144h.403V23.077h1.215v16.222h.404V22.93h1.21v16.369h.411v-18.22c.403 0 .814.007 1.222.007v17.522c.328-.003.653-.003.981-.007v-14.29c.188 0 .376.004.571.004v13.851c.27.007.537.01.811.018.124-1.139.031-2.282.048-3.424.017-1.174.007-2.354.007-3.534V20.645c.081-.003.171-.003.253-.007.186.678.51 1.358.527 2.036.065 2.456-.023 4.919.045 7.376.074 3.082.253 6.167.386 9.25h.403V20.653c.103 0 .206-.004.312-.004.03.175.084.353.092.531.136 4.717.245 9.441.42 14.166.049 1.32.258 2.638.391 3.954h.408V24.203c.104-.01.211-.017.316-.024.168.329.411.647.47.972.079.462.006.921.022 1.385.131 4.252.268 8.512.398 12.764h.409V23.54h1.212V39.3h.407V22.924h1.212V39.3h.403V23.236h1.217V39.3h.4V24.614c.404 0 .807.007 1.214.007V39.3h.408V23.389h1.211V39.3h.4V25.696c.403-.004.804-.004 1.204-.004.006 2.18.014 4.349.018 6.524 0 2.176 0 4.342.219 6.511.194-1.02.5-2.039.557-3.069.103-1.662-.022-3.325.049-4.988.064-1.7.235-3.4.399-5.101a.55.55 0 0 1 .421-.468c3.039-.675 4.055-1.796 5.031-2.987.678-.827 1.24-1.279 2.25-1.532a18.38 18.38 0 0 1 .012-.878z" id="r"/></defs><g fill="none" fill-rule="evenodd"><g transform="translate(0 12)"><mask id="c" fill="#fff"><use xlink:href="#a"/></mask><use fill="#3D3D3F" xlink:href="#a"/><path fill="url(#b)" mask="url(#c)" d="M-32-78h786v368H-32z"/></g><g transform="translate(91 88)"><mask id="e" fill="#fff"><use xlink:href="#d"/></mask><use fill="#3D3D3F" xlink:href="#d"/><path fill="url(#b)" mask="url(#e)" d="M-123-154h786v368h-786z"/></g><g transform="translate(192 88)"><mask id="g" fill="#fff"><use xlink:href="#f"/></mask><use fill="#3D3D3F" xlink:href="#f"/><path fill="url(#b)" mask="url(#g)" d="M-224-154h786v368h-786z"/></g><g transform="translate(243 88)"><mask id="i" fill="#fff"><use xlink:href="#h"/></mask><use fill="#3D3D3F" xlink:href="#h"/><path fill="url(#b)" mask="url(#i)" d="M-275-154h786v368h-786z"/></g><g transform="translate(353 88)"><mask id="k" fill="#fff"><use xlink:href="#j"/></mask><use fill="#3D3D3F" xlink:href="#j"/><path fill="url(#b)" mask="url(#k)" d="M-385-154h786v368h-786z"/></g><g transform="translate(436 88)"><mask id="m" fill="#fff"><use xlink:href="#l"/></mask><use fill="#3D3D3F" xlink:href="#l"/><path fill="url(#b)" mask="url(#m)" d="M-468-154h786v368h-786z"/></g><g transform="translate(530 88)"><mask id="o" fill="#fff"><use xlink:href="#n"/></mask><use fill="#3D3D3F" xlink:href="#n"/><path fill="url(#b)" mask="url(#o)" d="M-562-154h786v368h-786z"/></g><g transform="translate(581 88)"><mask id="q" fill="#fff"><use xlink:href="#p"/></mask><use fill="#3D3D3F" xlink:href="#p"/><path fill="url(#b)" mask="url(#q)" d="M-613-154h786v368h-786z"/></g><g transform="translate(87)"><mask id="s" fill="#fff"><use xlink:href="#r"/></mask><use fill="#3D3D3F" xlink:href="#r"/><path fill="url(#b)" mask="url(#s)" d="M-119-66h786v368h-786z"/></g></g></svg>