<svg viewBox="0 0 574 113" xmlns="http://www.w3.org/2000/svg" xmlns:xlink="http://www.w3.org/1999/xlink"><title>Group</title><defs><path id="a" d="M56.43 112.528L30.533 68.637l-7.907 12.444v31.446H.096V.37h22.53v50.951L54.243.37h26.232L44.658 53.167 83 112.528z"/><linearGradient x1="0%" y1="0%" x2="102%" y2="101%" id="b"><stop stop-color="#3023AE" offset="0%"/><stop stop-color="#C96DD8" offset="100%"/></linearGradient><path id="d" d="M.488 112.528V.37h22.534v112.158z"/><path id="f" d="M60.975 112.528L22.799 46.273v66.255H.269V.37h22.869l36.659 63.895V.37h22.701v112.158z"/><path id="h" d="M.572 112.528V.37h64.24v19.841H23.105v25.39h40.529v19.84H23.105v27.244h41.707v19.843H.572z"/><path id="j" d="M25.521 112.528V20.211H.635V.37h72.307v19.841H48.056v92.317z"/><path id="l" d="M.795 112.528V.37h22.534v112.158z"/><path id="n" d="M56.913 112.528L31.016 68.637l-7.904 12.444v31.446H.578V.37h22.534v50.951L54.725.37h26.236L45.138 53.167l38.343 59.361z"/></defs><g fill="none" fill-rule="evenodd"><g><mask id="c" fill="#fff"><use xlink:href="#a"/></mask><use fill="#3D3D3F" xlink:href="#a"/><path fill="url(#b)" mask="url(#c)" d="M-123-154h786v368h-786z"/></g><g transform="translate(101)"><mask id="e" fill="#fff"><use xlink:href="#d"/></mask><use fill="#3D3D3F" xlink:href="#d"/><path fill="url(#b)" mask="url(#e)" d="M-224-154h786v368h-786z"/></g><g transform="translate(152)"><mask id="g" fill="#fff"><use xlink:href="#f"/></mask><use fill="#3D3D3F" xlink:href="#f"/><path fill="url(#b)" mask="url(#g)" d="M-275-154h786v368h-786z"/></g><g transform="translate(262)"><mask id="i" fill="#fff"><use xlink:href="#h"/></mask><use fill="#3D3D3F" xlink:href="#h"/><path fill="url(#b)" mask="url(#i)" d="M-385-154h786v368h-786z"/></g><g transform="translate(345)"><mask id="k" fill="#fff"><use xlink:href="#j"/></mask><use fill="#3D3D3F" xlink:href="#j"/><path fill="url(#b)" mask="url(#k)" d="M-468-154h786v368h-786z"/></g><g transform="translate(439)"><mask id="m" fill="#fff"><use xlink:href="#l"/></mask><use fill="#3D3D3F" xlink:href="#l"/><path fill="url(#b)" mask="url(#m)" d="M-562-154h786v368h-786z"/></g><g transform="translate(490)"><mask id="o" fill="#fff"><use xlink:href="#n"/></mask><use fill="#3D3D3F" xlink:href="#n"/><path fill="url(#b)" mask="url(#o)" d="M-613-154h786v368h-786z"/></g></g></svg>