<svg version="1" xmlns="http://www.w3.org/2000/svg" viewBox="0 0 12060 6930"><g fill="#fff"><path d="M3505 5691c-50-13-90-38-127-79-83-92-83-232 0-324 114-126 303-107 389 39 24 41 28 59 28 123 0 53-6 85-18 109-18 32-18 34 2 55 27 29 27 51-1 70-20 14-24 14-43 1-35-26-44-28-78-12-41 19-113 28-152 18zm112-95c4-3-8-21-25-39-34-35-39-56-20-75 20-20 45-14 82 18 40 35 46 28 46-53 0-120-107-191-210-139-42 20-80 89-80 142 0 52 38 120 80 142 34 18 111 21 127 4zM4085 5691c-57-15-94-41-122-88-26-44-27-55-31-199s-3-153 17-173c26-26 36-26 61-1 18 18 20 33 20 169 0 144 1 151 24 178 21 25 31 28 81 28s60-3 81-28c23-27 24-34 24-178 0-136 2-151 20-169 11-11 25-20 30-20 6 0 19 9 30 20 18 18 20 33 20 140 0 65-5 142-11 170-12 55-53 111-98 135-34 17-108 26-146 16zM5705 5691c-77-20-152-87-176-157-16-50-16-118 0-168 17-49 73-111 125-139 101-51 286-2 274 74-6 41-32 46-88 15-59-32-118-32-166-1-32 20-63 88-64 135 0 53 38 122 80 143 45 23 116 18 158-11 38-28 68-28 82-1 32 60-124 136-225 110zM6975 5691c-77-20-152-87-176-157-16-50-16-118 0-168 17-49 73-111 125-139 101-51 286-2 274 74-6 41-32 46-88 15-59-32-118-32-166-1-32 20-63 88-64 135 0 53 38 122 80 143 45 23 116 18 158-11 38-28 68-28 82-1 32 60-124 136-225 110zM7475 5691c-57-15-94-41-122-88-26-44-27-55-31-199s-3-153 17-173c26-26 36-26 61-1 18 18 20 33 20 169 0 144 1 151 24 178 21 25 31 28 81 28s60-3 81-28c23-27 24-34 24-178 0-136 2-151 20-169 11-11 25-20 30-20 6 0 19 9 30 20 18 18 20 33 20 140 0 65-5 142-11 170-12 55-53 111-98 135-34 17-108 26-146 16zM8875 5691c-57-15-94-41-122-88-26-44-27-55-31-199s-3-153 17-173c26-26 36-26 61-1 18 18 20 33 20 169 0 144 1 151 24 178 21 25 31 28 81 28s60-3 81-28c23-27 24-34 24-178 0-136 2-151 20-169 11-11 25-20 30-20 6 0 19 9 30 20 18 18 20 33 20 140 0 65-5 142-11 170-12 55-53 111-98 135-34 17-108 26-146 16zM1890 5670c-19-19-20-33-20-220 0-256-12-240 178-240 108 0 142 3 160 16 27 18 28 36 4 57-15 14-40 17-130 17h-112v110h93c122 0 168 29 119 73-15 13-39 17-115 17h-97v75c0 62-4 79-20 95-11 11-24 20-30 20-5 0-19-9-30-20zM2360 5670c-19-19-20-33-20-220 0-256-8-244 159-238 82 3 125 9 148 21 98 52 110 176 23 250l-39 33 44 55c49 58 56 92 25 109-29 15-48 2-110-79-54-69-56-70-102-71h-48v60c0 47-4 64-20 80-11 11-24 20-30 20-5 0-19-9-30-20zm252-247c11-10 18-30 18-54 0-54-26-69-117-69h-73v140h77c57 0 81-4 95-17zM2880 5670c-19-19-20-33-20-220 0-256-12-240 178-240 108 0 142 3 160 16 27 18 28 36 4 57-15 14-40 17-130 17h-112v100h93c122 0 168 29 119 73-15 13-39 17-115 17h-97v110h113c98 0 116 3 130 18 22 24 21 35-1 55-15 14-42 17-160 17-129 0-144-2-162-20zM4500 5670c-19-19-20-33-20-220 0-256-12-240 178-240 108 0 142 3 160 16 27 18 28 36 4 57-15 14-40 17-130 17h-112v100h93c122 0 168 29 119 73-15 13-39 17-115 17h-97v110h113c98 0 116 3 130 18 22 24 21 35-1 55-15 14-42 17-160 17-129 0-144-2-162-20zM4990 5670c-19-19-20-33-20-220s1-201 20-220c40-40 54-29 185 141l110 142 5-137c4-121 7-139 24-152 26-18 32-18 56 6 19 19 20 33 20 220s-1 201-20 220c-11 11-23 20-28 20-20 0-57-39-158-170l-109-141-5 142c-4 124-7 142-24 155-26 18-32 18-56-6zM6210 5670c-17-17-20-33-20-98v-78l-80-109c-44-60-80-117-80-127 0-25 39-49 61-37 10 5 47 50 81 99 34 50 65 90 69 90 3 0 35-41 69-91 73-104 93-119 121-93 10 9 19 24 19 33s-36 65-80 125l-80 108v79c0 66-3 82-20 99-11 11-24 20-30 20-5 0-19-9-30-20zM7890 5670c-19-19-20-33-20-220s1-201 20-220c11-11 25-20 30-20 6 0 19 9 30 20 18 18 20 33 20 195v175h103c88 0 106 3 120 18 23 25 21 38-5 56-18 13-51 16-150 16-115 0-130-2-148-20zM8390 5670c-18-18-20-33-20-195v-175h-58c-32 0-63-5-70-12-18-18-14-56 7-68 11-5 86-10 171-10s160 5 171 10c21 12 25 50 7 68-7 7-38 12-70 12h-58v175c0 162-2 177-20 195-11 11-24 20-30 20-5 0-19-9-30-20zM9300 5670c-19-19-20-33-20-220 0-256-8-244 159-238 82 3 125 9 148 21 98 52 110 176 23 250l-39 33 44 55c49 58 56 92 25 109-29 15-48 2-110-79-54-69-56-70-102-71h-48v60c0 47-4 64-20 80-11 11-24 20-30 20-5 0-19-9-30-20zm252-247c11-10 18-30 18-54 0-54-26-69-117-69h-73v140h77c57 0 81-4 95-17zM9820 5670c-19-19-20-33-20-220 0-256-12-240 178-240 108 0 142 3 160 16 27 18 28 36 4 57-15 14-40 17-130 17h-112v100h93c122 0 168 29 119 73-15 13-39 17-115 17h-97v110h113c98 0 116 3 130 18 22 24 21 35-1 55-15 14-42 17-160 17-129 0-144-2-162-20zM5470 4754c-541-33-1018-275-1341-681-198-248-324-542-375-873-32-208-18-535 32-735 52-211 165-461 281-625 100-140 322-358 457-449 333-221 673-322 1086-323 525 0 930 152 1268 477 122 116 151 162 152 230 0 86-26 115-280 313-129 100-253 192-274 203-31 16-52 20-97 17-62-4-52 2-209-129-102-84-247-160-357-186-118-27-332-25-436 5-310 89-528 337-599 681-17 81-19 122-15 261 6 203 26 291 101 445 111 226 280 370 512 437 105 30 341 32 449 4 216-56 394-185 580-421 144-182 281-313 445-422 448-300 1111-376 1665-192 342 114 591 294 830 599 180 231 389 382 592 431 112 27 155 45 187 78 53 55 56 76 56 393 0 275-1 294-21 335-26 55-82 100-134 111-51 10-159-2-304-34-407-90-722-295-1014-659-217-270-328-355-537-415-107-31-381-40-500-16-238 49-376 142-576 392-308 386-597 585-992 685-177 45-460 73-632 63z"/><path d="M2016 4676c-47-18-104-70-122-113-12-27-14-302-14-1688 0-1619 0-1657 19-1694 24-45 81-98 119-108 38-11 2836-10 2840 1 2 5-37 26-85 46-366 158-687 439-880 771l-46 79h-409c-439 0-451 1-506 53-44 41-55 76-60 191-6 144 8 206 58 256 55 55 93 60 425 60 165 0 286 4 290 9 3 5 0 43-7 83-19 110-16 499 5 617 9 52 14 98 11 103-3 4-137 8-297 8-164 0-312 5-337 11-24 5-60 22-78 36-68 51-66 41-72 629l-5 531-28 40c-15 22-46 50-70 64-42 24-43 24-377 26-267 2-343 0-374-11z"/></g><path d="M0 3465V0h12060v6930H0V3465zm3654 2189c38-18 43-18 73 5 46 37 73-1 32-45-20-21-20-23-2-55 12-24 18-56 18-110 0-67-3-81-30-124-73-118-257-135-352-33-74 79-74 237 0 316 62 66 178 87 261 46zm577 0c68-35 89-102 89-283 0-93-3-121-15-131s-18-10-30 0-15 41-15 161v149l-34 38c-32 34-38 37-91 37s-59-3-91-37l-34-38v-149c0-120-3-151-15-161s-18-10-31 1c-14 12-16 34-12 164 3 134 6 154 27 192 22 39 59 63 116 77 30 7 106-4 136-20zm1636-5c41-20 58-42 47-60-9-15-34-10-67 14-24 16-46 22-89 22-63 0-97-19-135-75-74-109-7-263 120-277 37-4 55 0 93 21 58 33 74 33 74 1 0-61-169-93-255-48-78 41-118 110-118 203 0 177 165 277 330 199zm1270 0c41-20 58-42 47-60-9-15-34-10-67 14-24 16-46 22-89 22-63 0-97-19-135-75-74-109-7-263 120-277 37-4 55 0 93 21 58 33 74 33 74 1 0-61-169-93-255-48-78 41-118 110-118 203 0 177 165 277 330 199zm484 5c68-35 89-102 89-283 0-93-3-121-15-131s-18-10-30 0-15 41-15 161v149l-34 38c-32 34-38 37-91 37s-59-3-91-37l-34-38v-149c0-120-3-151-15-161s-18-10-31 1c-14 12-16 34-12 164 3 134 6 154 27 192 22 39 59 63 116 77 30 7 106-4 136-20zm1400 0c68-35 89-102 89-283 0-93-3-121-15-131s-18-10-30 0-15 41-15 161v149l-34 38c-32 34-38 37-91 37s-59-3-91-37l-34-38v-149c0-120-3-151-15-161s-18-10-31 1c-14 12-16 34-12 164 3 134 6 154 27 192 22 39 59 63 116 77 30 7 106-4 136-20zm-7083 3c6-7 12-49 14-92l3-80 108-3c85-2 109-6 114-18 3-8 2-18-2-22-3-4-55-9-113-12l-107-5v-140l123-3c101-2 124-5 129-18 3-9 0-20-8-25-22-14-283-11-297 3-17 17-17 399 0 416 15 15 23 15 36-1zm470 0c6-7 12-42 14-77l3-65 56-3 56-3 58 75c59 75 78 91 96 80 19-11 8-41-36-94-25-30-45-58-45-61 0-4 16-16 35-28 83-49 85-184 3-227-43-23-250-33-273-14-12 10-15 46-15 209 0 140 3 200 12 209 15 15 23 15 36-1zm787-12c0-19-8-20-125-25l-125-5v-140l108-3c85-2 109-6 114-18 3-8 2-18-2-22-3-4-55-9-113-12l-107-5v-130l123-3c101-2 124-5 129-18 3-9 0-20-8-25-22-14-283-11-297 3-17 17-17 399 0 416 9 9 53 12 158 10 137-3 145-4 145-23zm1620 0c0-19-8-20-125-25l-125-5v-140l108-3c85-2 109-6 114-18 3-8 2-18-2-22-3-4-55-9-113-12l-107-5v-130l123-3c101-2 124-5 129-18 3-9 0-20-8-25-22-14-283-11-297 3-17 17-17 399 0 416 9 9 53 12 158 10 137-3 145-4 145-23zm223 13c8-8 12-58 12-159 0-81 4-150 8-153 4-2 63 67 130 154 180 231 182 230 182-50 0-163-3-200-15-210s-18-10-30 0-15 41-15 156c0 78-4 145-8 148-5 3-62-65-128-150-177-229-184-226-184 55 0 187 5 221 30 221 3 0 11-5 18-12zm1220 0c7-7 12-42 12-89v-77l80-108c76-103 92-136 71-148-19-12-38 7-105 104-38 55-72 100-76 100s-33-39-66-87c-71-105-89-124-109-117-28 11-16 39 65 149l80 109v76c0 68 9 100 30 100 3 0 11-5 18-12zm1921 3c8-5 11-16 8-25-5-12-27-16-119-18l-113-3-3-181c-2-146-5-184-17-194s-18-10-30 0-15 47-15 209c0 140 3 200 12 209 14 14 255 17 277 3zm260-4c6-8 12-81 13-193l3-179 68-3c64-3 68-4 65-25-3-22-6-22-168-22s-165 0-168 22c-3 21 1 22 65 25l68 3 3 179c2 168 8 206 32 206 4 0 12-6 19-13zm909 0c6-7 12-42 14-77l3-65 56-3 56-3 58 75c59 75 78 91 96 80 19-11 8-41-36-94-25-30-45-58-45-61 0-4 16-16 35-28 83-49 85-184 3-227-43-23-250-33-273-14-12 10-15 46-15 209 0 140 3 200 12 209 15 15 23 15 36-1zm787-12c0-19-8-20-125-25l-125-5v-140l108-3c85-2 109-6 114-18 3-8 2-18-2-22-3-4-55-9-113-12l-107-5v-130l123-3c101-2 124-5 129-18 3-9 0-20-8-25-22-14-283-11-297 3-17 17-17 399 0 416 9 9 53 12 158 10 137-3 145-4 145-23zm-4264-931c215-26 439-95 609-187 224-121 394-270 593-519 211-264 356-365 597-414 117-23 393-15 497 15 209 61 328 150 526 396 170 211 287 323 455 436 218 146 466 238 742 273 146 19 208-3 249-87 20-41 21-60 21-338 0-286-1-296-22-339-28-55-74-79-201-109-100-24-214-78-307-147-83-61-230-207-305-304-227-291-473-467-810-579-554-184-1217-108-1665 192-163 109-283 223-425 402-195 246-382 384-600 441-108 28-344 26-448-4-187-54-356-176-468-338-50-73-116-223-140-314-32-128-38-381-11-510 72-348 304-611 619-702 104-30 318-32 436-5 110 26 255 102 357 186 157 131 147 125 209 129 42 3 67-1 91-13 19-10 141-100 271-201 254-197 269-214 269-302-1-64-32-112-142-218-331-315-739-466-1258-466-413 1-754 102-1086 323-134 90-339 290-437 429-116 164-229 414-281 625-50 200-64 527-32 735 115 742 615 1298 1332 1478 241 61 477 72 765 36zm-3149-54c48-14 97-55 114-97 11-26 14-132 14-531 0-574 0-574 76-641 31-27 61-43 95-50 29-6 170-11 335-11h284l-5-22c-40-178-45-589-8-735l5-23h-280c-340 0-367-4-433-70-60-60-74-114-67-266 5-120 15-149 70-201 65-63 66-63 512-63h404l42-71c192-324 519-613 870-769l65-29H3445c-788 0-1387 3-1409 9-51 11-86 38-113 86l-23 39v1658c0 1792-3 1694 53 1745 51 47 80 51 417 52 187 0 330-4 352-10z"/><path d="M3495 5614c-45-23-66-45-86-89-54-116 29-255 152-255 40 0 80 22 117 65 38 43 46 69 40 141-6 76-18 84-63 45-70-61-104-26-38 41l37 38-37 15c-46 19-84 19-122-1zM2424 5447c-3-8-4-47-2-88l3-74 81-3c76-3 84-1 113 24 42 35 43 88 3 127-26 25-35 27-110 27-60 0-84-4-88-13zM9364 5447c-3-8-4-47-2-88l3-74 81-3c76-3 84-1 113 24 42 35 43 88 3 127-26 25-35 27-110 27-60 0-84-4-88-13z"/></svg>